<svg xmlns="http://www.w3.org/2000/svg" xmlns:xlink="http://www.w3.org/1999/xlink" width="600" zoomAndPan="magnify" viewBox="0 0 450 149.999998" height="200" preserveAspectRatio="xMidYMid meet" version="1.0"><defs><g/><clipPath id="4ffce066dc"><path d="M 240 52.386719 L 243 52.386719 L 243 55 L 240 55 Z M 240 52.386719 " clip-rule="nonzero"/></clipPath><clipPath id="ffbdeb604c"><path d="M 214.183594 59 L 248 59 L 248 97.386719 L 214.183594 97.386719 Z M 214.183594 59 " clip-rule="nonzero"/></clipPath><clipPath id="8376763ea0"><path d="M 214.183594 65 L 239 65 L 239 86 L 214.183594 86 Z M 214.183594 65 " clip-rule="nonzero"/></clipPath><clipPath id="13371cb432"><path d="M 231 68 L 247 68 L 247 97.386719 L 231 97.386719 Z M 231 68 " clip-rule="nonzero"/></clipPath><clipPath id="f39c798f10"><path d="M 345 9.359375 L 369.339844 9.359375 L 369.339844 40 L 345 40 Z M 345 9.359375 " clip-rule="nonzero"/></clipPath><clipPath id="51a939d81a"><path d="M 340 56 L 343 56 L 343 61.859375 L 340 61.859375 Z M 340 56 " clip-rule="nonzero"/></clipPath><clipPath id="051f0997c5"><path d="M 329 56 L 332 56 L 332 61.859375 L 329 61.859375 Z M 329 56 " clip-rule="nonzero"/></clipPath><clipPath id="bdf274511d"><path d="M 319 56 L 323 56 L 323 61.859375 L 319 61.859375 Z M 319 56 " clip-rule="nonzero"/></clipPath></defs><rect x="-45" width="540" fill="#ffffff" y="-15" height="179.999997" fill-opacity="1"/><rect x="-45" width="540" fill="#ffffff" y="-15" height="179.999997" fill-opacity="1"/><g fill="#4caf50" fill-opacity="1"><g transform="translate(63.756211, 128.541432)"><g><path d="M 6.421875 0 L 3.453125 0 L 0.375 -13.46875 L 3.015625 -13.46875 L 5.0625 -4 L 5.28125 -4 L 7.703125 -13.46875 L 9.96875 -13.46875 L 12.4375 -4 L 12.65625 -4 L 14.703125 -13.46875 L 17.265625 -13.46875 L 14.1875 0 L 11.203125 0 L 8.84375 -8.6875 L 8.65625 -8.6875 Z M 6.421875 0 "/></g></g></g><g fill="#4caf50" fill-opacity="1"><g transform="translate(81.075409, 128.541432)"><g><path d="M 10.03125 -4.5 L 3.515625 -4.5 C 3.585938 -3.613281 3.835938 -2.96875 4.265625 -2.5625 C 4.691406 -2.164062 5.273438 -1.96875 6.015625 -1.96875 C 6.597656 -1.96875 7.070312 -2.078125 7.4375 -2.296875 C 7.800781 -2.515625 8.09375 -2.84375 8.3125 -3.28125 L 8.515625 -3.28125 L 10.203125 -2.203125 C 9.867188 -1.484375 9.367188 -0.90625 8.703125 -0.46875 C 8.035156 -0.03125 7.140625 0.1875 6.015625 0.1875 C 4.972656 0.1875 4.066406 -0.0078125 3.296875 -0.40625 C 2.535156 -0.800781 1.945312 -1.394531 1.53125 -2.1875 C 1.113281 -2.976562 0.90625 -3.941406 0.90625 -5.078125 C 0.90625 -6.234375 1.125 -7.207031 1.5625 -8 C 2 -8.789062 2.585938 -9.378906 3.328125 -9.765625 C 4.078125 -10.148438 4.914062 -10.34375 5.84375 -10.34375 C 7.28125 -10.34375 8.378906 -9.960938 9.140625 -9.203125 C 9.898438 -8.441406 10.28125 -7.328125 10.28125 -5.859375 C 10.28125 -5.328125 10.265625 -4.910156 10.234375 -4.609375 Z M 7.84375 -6.15625 C 7.820312 -6.925781 7.644531 -7.488281 7.3125 -7.84375 C 6.976562 -8.195312 6.488281 -8.375 5.84375 -8.375 C 4.550781 -8.375 3.789062 -7.632812 3.5625 -6.15625 Z M 7.84375 -6.15625 "/></g></g><g transform="translate(92.115132, 128.541432)"><g/></g><g transform="translate(96.562326, 128.541432)"><g><path d="M 5.015625 0.1875 C 4.210938 0.1875 3.503906 -0.00390625 2.890625 -0.390625 C 2.273438 -0.773438 1.789062 -1.363281 1.4375 -2.15625 C 1.082031 -2.945312 0.90625 -3.921875 0.90625 -5.078125 C 0.90625 -6.234375 1.082031 -7.207031 1.4375 -8 C 1.800781 -8.789062 2.300781 -9.378906 2.9375 -9.765625 C 3.570312 -10.148438 4.304688 -10.34375 5.140625 -10.34375 C 5.773438 -10.34375 6.320312 -10.234375 6.78125 -10.015625 C 7.25 -9.804688 7.644531 -9.46875 7.96875 -9 L 8.15625 -9.046875 L 8.15625 -14.234375 L 10.703125 -14.234375 L 10.703125 0 L 8.15625 0 L 8.15625 -1.3125 L 7.96875 -1.359375 C 7.6875 -0.878906 7.296875 -0.5 6.796875 -0.21875 C 6.304688 0.0507812 5.710938 0.1875 5.015625 0.1875 Z M 5.84375 -1.96875 C 6.5625 -1.96875 7.128906 -2.222656 7.546875 -2.734375 C 7.960938 -3.253906 8.171875 -4.035156 8.171875 -5.078125 C 8.171875 -6.117188 7.960938 -6.894531 7.546875 -7.40625 C 7.128906 -7.925781 6.5625 -8.1875 5.84375 -8.1875 C 5.09375 -8.1875 4.519531 -7.9375 4.125 -7.4375 C 3.726562 -6.9375 3.53125 -6.148438 3.53125 -5.078125 C 3.53125 -4.003906 3.726562 -3.21875 4.125 -2.71875 C 4.519531 -2.21875 5.09375 -1.96875 5.84375 -1.96875 Z M 5.84375 -1.96875 "/></g></g><g transform="translate(108.734564, 128.541432)"><g><path d="M 2.734375 -11.375 C 2.273438 -11.375 1.898438 -11.507812 1.609375 -11.78125 C 1.316406 -12.0625 1.171875 -12.425781 1.171875 -12.875 C 1.171875 -13.3125 1.316406 -13.664062 1.609375 -13.9375 C 1.898438 -14.21875 2.273438 -14.359375 2.734375 -14.359375 C 3.046875 -14.359375 3.316406 -14.296875 3.546875 -14.171875 C 3.785156 -14.046875 3.972656 -13.867188 4.109375 -13.640625 C 4.242188 -13.421875 4.3125 -13.164062 4.3125 -12.875 C 4.3125 -12.582031 4.242188 -12.320312 4.109375 -12.09375 C 3.972656 -11.875 3.785156 -11.695312 3.546875 -11.5625 C 3.316406 -11.4375 3.046875 -11.375 2.734375 -11.375 Z M 1.46875 0 L 1.46875 -10.15625 L 4.015625 -10.15625 L 4.015625 0 Z M 1.46875 0 "/></g></g><g transform="translate(114.203785, 128.541432)"><g><path d="M 5.265625 4.3125 C 3.585938 4.3125 2.347656 4.066406 1.546875 3.578125 C 0.753906 3.085938 0.359375 2.398438 0.359375 1.515625 C 0.359375 0.984375 0.523438 0.546875 0.859375 0.203125 C 1.203125 -0.128906 1.695312 -0.359375 2.34375 -0.484375 L 2.34375 -0.671875 C 2 -0.878906 1.75 -1.109375 1.59375 -1.359375 C 1.445312 -1.617188 1.375 -1.914062 1.375 -2.25 C 1.375 -3.070312 1.90625 -3.625 2.96875 -3.90625 L 2.96875 -4.09375 C 2.414062 -4.40625 2 -4.789062 1.71875 -5.25 C 1.445312 -5.71875 1.3125 -6.28125 1.3125 -6.9375 C 1.3125 -7.613281 1.46875 -8.207031 1.78125 -8.71875 C 2.09375 -9.238281 2.546875 -9.640625 3.140625 -9.921875 C 3.742188 -10.203125 4.460938 -10.34375 5.296875 -10.34375 C 6.140625 -10.34375 6.816406 -10.195312 7.328125 -9.90625 C 7.640625 -10.363281 7.816406 -10.890625 7.859375 -11.484375 L 8.0625 -11.609375 L 9.890625 -11.15625 C 9.835938 -10.664062 9.695312 -10.253906 9.46875 -9.921875 C 9.238281 -9.597656 8.882812 -9.304688 8.40625 -9.046875 L 8.40625 -8.84375 C 8.976562 -8.34375 9.265625 -7.640625 9.265625 -6.734375 C 9.265625 -6.109375 9.109375 -5.546875 8.796875 -5.046875 C 8.484375 -4.554688 8.023438 -4.164062 7.421875 -3.875 C 6.828125 -3.582031 6.117188 -3.4375 5.296875 -3.4375 L 4.90625 -3.453125 C 4.664062 -3.460938 4.492188 -3.46875 4.390625 -3.46875 C 4.160156 -3.46875 3.976562 -3.40625 3.84375 -3.28125 C 3.707031 -3.15625 3.640625 -2.992188 3.640625 -2.796875 C 3.640625 -2.585938 3.722656 -2.421875 3.890625 -2.296875 C 4.066406 -2.179688 4.320312 -2.113281 4.65625 -2.09375 L 6.9375 -2.015625 C 9.175781 -1.953125 10.296875 -0.984375 10.296875 0.890625 C 10.296875 1.546875 10.128906 2.128906 9.796875 2.640625 C 9.460938 3.148438 8.921875 3.554688 8.171875 3.859375 C 7.421875 4.160156 6.453125 4.3125 5.265625 4.3125 Z M 5.296875 -5.234375 C 5.785156 -5.234375 6.164062 -5.375 6.4375 -5.65625 C 6.71875 -5.945312 6.859375 -6.359375 6.859375 -6.890625 C 6.859375 -7.429688 6.71875 -7.84375 6.4375 -8.125 C 6.164062 -8.414062 5.785156 -8.5625 5.296875 -8.5625 C 4.796875 -8.5625 4.410156 -8.414062 4.140625 -8.125 C 3.867188 -7.84375 3.734375 -7.429688 3.734375 -6.890625 C 3.734375 -6.359375 3.867188 -5.945312 4.140625 -5.65625 C 4.410156 -5.375 4.796875 -5.234375 5.296875 -5.234375 Z M 5.265625 2.453125 C 6.140625 2.453125 6.773438 2.328125 7.171875 2.078125 C 7.566406 1.835938 7.765625 1.519531 7.765625 1.125 C 7.765625 0.8125 7.660156 0.578125 7.453125 0.421875 C 7.253906 0.273438 6.929688 0.195312 6.484375 0.1875 L 4.484375 0.09375 C 4.421875 0.09375 4.359375 0.0859375 4.296875 0.078125 C 4.234375 0.078125 4.175781 0.078125 4.125 0.078125 C 3.695312 0.078125 3.367188 0.164062 3.140625 0.34375 C 2.921875 0.53125 2.8125 0.785156 2.8125 1.109375 C 2.8125 1.546875 3.015625 1.878906 3.421875 2.109375 C 3.835938 2.335938 4.453125 2.453125 5.265625 2.453125 Z M 5.265625 2.453125 "/></g></g><g transform="translate(124.764721, 128.541432)"><g/></g><g transform="translate(129.211915, 128.541432)"><g><path d="M 7 -2.421875 L 7.671875 -0.53125 C 7.390625 -0.300781 7.039062 -0.125 6.625 0 C 6.207031 0.125 5.738281 0.1875 5.21875 0.1875 C 4.113281 0.1875 3.273438 -0.109375 2.703125 -0.703125 C 2.128906 -1.304688 1.84375 -2.175781 1.84375 -3.3125 L 1.84375 -8.140625 L 0.296875 -8.140625 L 0.296875 -10.171875 L 1.84375 -10.171875 L 1.84375 -12.140625 L 4.40625 -12.5625 L 4.40625 -10.171875 L 7.28125 -10.171875 L 7.28125 -8.140625 L 4.40625 -8.140625 L 4.40625 -3.5 C 4.40625 -3 4.507812 -2.628906 4.71875 -2.390625 C 4.925781 -2.160156 5.226562 -2.046875 5.625 -2.046875 C 6.082031 -2.046875 6.476562 -2.171875 6.8125 -2.421875 Z M 7 -2.421875 "/></g></g><g transform="translate(137.102693, 128.541432)"><g><path d="M 1.46875 0 L 1.46875 -14.234375 L 4.015625 -14.234375 L 4.015625 -8.828125 L 4.203125 -8.796875 C 4.546875 -9.296875 4.960938 -9.675781 5.453125 -9.9375 C 5.941406 -10.207031 6.535156 -10.34375 7.234375 -10.34375 C 9.472656 -10.34375 10.59375 -9.070312 10.59375 -6.53125 L 10.59375 0 L 8.046875 0 L 8.046875 -6.21875 C 8.046875 -6.90625 7.90625 -7.40625 7.625 -7.71875 C 7.34375 -8.039062 6.910156 -8.203125 6.328125 -8.203125 C 5.617188 -8.203125 5.054688 -7.960938 4.640625 -7.484375 C 4.222656 -7.003906 4.015625 -6.265625 4.015625 -5.265625 L 4.015625 0 Z M 1.46875 0 "/></g></g><g transform="translate(148.998708, 128.541432)"><g><path d="M 10.03125 -4.5 L 3.515625 -4.5 C 3.585938 -3.613281 3.835938 -2.96875 4.265625 -2.5625 C 4.691406 -2.164062 5.273438 -1.96875 6.015625 -1.96875 C 6.597656 -1.96875 7.070312 -2.078125 7.4375 -2.296875 C 7.800781 -2.515625 8.09375 -2.84375 8.3125 -3.28125 L 8.515625 -3.28125 L 10.203125 -2.203125 C 9.867188 -1.484375 9.367188 -0.90625 8.703125 -0.46875 C 8.035156 -0.03125 7.140625 0.1875 6.015625 0.1875 C 4.972656 0.1875 4.066406 -0.0078125 3.296875 -0.40625 C 2.535156 -0.800781 1.945312 -1.394531 1.53125 -2.1875 C 1.113281 -2.976562 0.90625 -3.941406 0.90625 -5.078125 C 0.90625 -6.234375 1.125 -7.207031 1.5625 -8 C 2 -8.789062 2.585938 -9.378906 3.328125 -9.765625 C 4.078125 -10.148438 4.914062 -10.34375 5.84375 -10.34375 C 7.28125 -10.34375 8.378906 -9.960938 9.140625 -9.203125 C 9.898438 -8.441406 10.28125 -7.328125 10.28125 -5.859375 C 10.28125 -5.328125 10.265625 -4.910156 10.234375 -4.609375 Z M 7.84375 -6.15625 C 7.820312 -6.925781 7.644531 -7.488281 7.3125 -7.84375 C 6.976562 -8.195312 6.488281 -8.375 5.84375 -8.375 C 4.550781 -8.375 3.789062 -7.632812 3.5625 -6.15625 Z M 7.84375 -6.15625 "/></g></g><g transform="translate(160.03843, 128.541432)"><g/></g><g transform="translate(164.485625, 128.541432)"><g><path d="M 7.09375 0.1875 C 5.800781 0.1875 4.835938 -0.296875 4.203125 -1.265625 L 4.015625 -1.21875 L 4.015625 0 L 1.46875 0 L 1.46875 -14.234375 L 4.015625 -14.234375 L 4.015625 -8.953125 L 4.203125 -8.921875 C 4.554688 -9.410156 4.96875 -9.769531 5.4375 -10 C 5.914062 -10.226562 6.488281 -10.34375 7.15625 -10.34375 C 7.976562 -10.34375 8.695312 -10.148438 9.3125 -9.765625 C 9.925781 -9.378906 10.40625 -8.789062 10.75 -8 C 11.09375 -7.21875 11.265625 -6.242188 11.265625 -5.078125 C 11.265625 -3.921875 11.082031 -2.945312 10.71875 -2.15625 C 10.363281 -1.363281 9.875 -0.773438 9.25 -0.390625 C 8.625 -0.00390625 7.90625 0.1875 7.09375 0.1875 Z M 6.328125 -1.96875 C 7.078125 -1.96875 7.644531 -2.21875 8.03125 -2.71875 C 8.425781 -3.21875 8.625 -4.003906 8.625 -5.078125 C 8.625 -6.148438 8.425781 -6.9375 8.03125 -7.4375 C 7.644531 -7.9375 7.078125 -8.1875 6.328125 -8.1875 C 5.609375 -8.1875 5.035156 -7.925781 4.609375 -7.40625 C 4.191406 -6.894531 3.984375 -6.117188 3.984375 -5.078125 C 3.984375 -4.035156 4.191406 -3.253906 4.609375 -2.734375 C 5.035156 -2.222656 5.609375 -1.96875 6.328125 -1.96875 Z M 6.328125 -1.96875 "/></g></g><g transform="translate(176.648655, 128.541432)"><g><path d="M 10.03125 -4.5 L 3.515625 -4.5 C 3.585938 -3.613281 3.835938 -2.96875 4.265625 -2.5625 C 4.691406 -2.164062 5.273438 -1.96875 6.015625 -1.96875 C 6.597656 -1.96875 7.070312 -2.078125 7.4375 -2.296875 C 7.800781 -2.515625 8.09375 -2.84375 8.3125 -3.28125 L 8.515625 -3.28125 L 10.203125 -2.203125 C 9.867188 -1.484375 9.367188 -0.90625 8.703125 -0.46875 C 8.035156 -0.03125 7.140625 0.1875 6.015625 0.1875 C 4.972656 0.1875 4.066406 -0.0078125 3.296875 -0.40625 C 2.535156 -0.800781 1.945312 -1.394531 1.53125 -2.1875 C 1.113281 -2.976562 0.90625 -3.941406 0.90625 -5.078125 C 0.90625 -6.234375 1.125 -7.207031 1.5625 -8 C 2 -8.789062 2.585938 -9.378906 3.328125 -9.765625 C 4.078125 -10.148438 4.914062 -10.34375 5.84375 -10.34375 C 7.28125 -10.34375 8.378906 -9.960938 9.140625 -9.203125 C 9.898438 -8.441406 10.28125 -7.328125 10.28125 -5.859375 C 10.28125 -5.328125 10.265625 -4.910156 10.234375 -4.609375 Z M 7.84375 -6.15625 C 7.820312 -6.925781 7.644531 -7.488281 7.3125 -7.84375 C 6.976562 -8.195312 6.488281 -8.375 5.84375 -8.375 C 4.550781 -8.375 3.789062 -7.632812 3.5625 -6.15625 Z M 7.84375 -6.15625 "/></g></g><g transform="translate(187.688378, 128.541432)"><g><path d="M 4.75 0.1875 C 4.0625 0.1875 3.425781 0.109375 2.84375 -0.046875 C 2.269531 -0.210938 1.773438 -0.4375 1.359375 -0.71875 C 0.953125 -1.007812 0.648438 -1.335938 0.453125 -1.703125 L 1.875 -3.234375 L 2.078125 -3.234375 C 2.410156 -2.773438 2.804688 -2.429688 3.265625 -2.203125 C 3.722656 -1.984375 4.222656 -1.875 4.765625 -1.875 C 5.265625 -1.875 5.640625 -1.960938 5.890625 -2.140625 C 6.140625 -2.316406 6.265625 -2.570312 6.265625 -2.90625 C 6.265625 -3.15625 6.175781 -3.367188 6 -3.546875 C 5.820312 -3.722656 5.53125 -3.859375 5.125 -3.953125 L 3.78125 -4.28125 C 2.769531 -4.519531 2.03125 -4.882812 1.5625 -5.375 C 1.101562 -5.875 0.875 -6.503906 0.875 -7.265625 C 0.875 -7.898438 1.035156 -8.445312 1.359375 -8.90625 C 1.679688 -9.375 2.132812 -9.726562 2.71875 -9.96875 C 3.300781 -10.21875 3.984375 -10.34375 4.765625 -10.34375 C 5.679688 -10.34375 6.441406 -10.210938 7.046875 -9.953125 C 7.648438 -9.691406 8.117188 -9.335938 8.453125 -8.890625 L 7.09375 -7.421875 L 6.90625 -7.421875 C 6.625 -7.742188 6.304688 -7.976562 5.953125 -8.125 C 5.597656 -8.269531 5.203125 -8.34375 4.765625 -8.34375 C 3.765625 -8.34375 3.265625 -8.03125 3.265625 -7.40625 C 3.265625 -7.132812 3.359375 -6.914062 3.546875 -6.75 C 3.734375 -6.59375 4.0625 -6.460938 4.53125 -6.359375 L 5.78125 -6.078125 C 6.8125 -5.859375 7.5625 -5.503906 8.03125 -5.015625 C 8.507812 -4.523438 8.75 -3.867188 8.75 -3.046875 C 8.75 -2.398438 8.585938 -1.832031 8.265625 -1.34375 C 7.953125 -0.851562 7.492188 -0.472656 6.890625 -0.203125 C 6.296875 0.0546875 5.582031 0.1875 4.75 0.1875 Z M 4.75 0.1875 "/></g></g><g transform="translate(197.052347, 128.541432)"><g><path d="M 7 -2.421875 L 7.671875 -0.53125 C 7.390625 -0.300781 7.039062 -0.125 6.625 0 C 6.207031 0.125 5.738281 0.1875 5.21875 0.1875 C 4.113281 0.1875 3.273438 -0.109375 2.703125 -0.703125 C 2.128906 -1.304688 1.84375 -2.175781 1.84375 -3.3125 L 1.84375 -8.140625 L 0.296875 -8.140625 L 0.296875 -10.171875 L 1.84375 -10.171875 L 1.84375 -12.140625 L 4.40625 -12.5625 L 4.40625 -10.171875 L 7.28125 -10.171875 L 7.28125 -8.140625 L 4.40625 -8.140625 L 4.40625 -3.5 C 4.40625 -3 4.507812 -2.628906 4.71875 -2.390625 C 4.925781 -2.160156 5.226562 -2.046875 5.625 -2.046875 C 6.082031 -2.046875 6.476562 -2.171875 6.8125 -2.421875 Z M 7 -2.421875 "/></g></g></g><g fill="#4caf50" fill-opacity="1"><g transform="translate(205.440327, 128.541432)"><g><path d="M 2.59375 0.078125 C 2.269531 0.078125 1.984375 0.015625 1.734375 -0.109375 C 1.484375 -0.242188 1.289062 -0.425781 1.15625 -0.65625 C 1.03125 -0.894531 0.96875 -1.160156 0.96875 -1.453125 C 0.96875 -1.742188 1.03125 -2.003906 1.15625 -2.234375 C 1.289062 -2.472656 1.484375 -2.660156 1.734375 -2.796875 C 1.984375 -2.929688 2.269531 -3 2.59375 -3 C 2.925781 -3 3.21875 -2.929688 3.46875 -2.796875 C 3.71875 -2.671875 3.90625 -2.488281 4.03125 -2.25 C 4.164062 -2.019531 4.234375 -1.757812 4.234375 -1.46875 C 4.234375 -1.019531 4.082031 -0.648438 3.78125 -0.359375 C 3.488281 -0.0664062 3.09375 0.078125 2.59375 0.078125 Z M 2.59375 0.078125 "/></g></g><g transform="translate(210.642532, 128.541432)"><g/></g><g transform="translate(215.089726, 128.541432)"><g><path d="M 7.375 0 L 4.71875 0 L 4.71875 -5.28125 L 0.0625 -13.46875 L 2.921875 -13.46875 L 6 -8.171875 L 6.21875 -8.171875 L 9.234375 -13.46875 L 12.03125 -13.46875 L 7.375 -5.28125 Z M 7.375 0 "/></g></g></g><g fill="#4caf50" fill-opacity="1"><g transform="translate(225.871641, 128.541432)"><g><path d="M 5.90625 0.1875 C 4.90625 0.1875 4.03125 -0.015625 3.28125 -0.421875 C 2.53125 -0.828125 1.945312 -1.421875 1.53125 -2.203125 C 1.113281 -2.992188 0.90625 -3.953125 0.90625 -5.078125 C 0.90625 -6.191406 1.113281 -7.144531 1.53125 -7.9375 C 1.945312 -8.726562 2.53125 -9.328125 3.28125 -9.734375 C 4.03125 -10.140625 4.90625 -10.34375 5.90625 -10.34375 C 6.894531 -10.34375 7.765625 -10.140625 8.515625 -9.734375 C 9.273438 -9.328125 9.863281 -8.726562 10.28125 -7.9375 C 10.695312 -7.144531 10.90625 -6.191406 10.90625 -5.078125 C 10.90625 -3.953125 10.695312 -2.992188 10.28125 -2.203125 C 9.863281 -1.421875 9.273438 -0.828125 8.515625 -0.421875 C 7.765625 -0.015625 6.894531 0.1875 5.90625 0.1875 Z M 5.90625 -1.96875 C 7.476562 -1.96875 8.265625 -3.003906 8.265625 -5.078125 C 8.265625 -6.148438 8.0625 -6.9375 7.65625 -7.4375 C 7.25 -7.9375 6.664062 -8.1875 5.90625 -8.1875 C 4.320312 -8.1875 3.53125 -7.148438 3.53125 -5.078125 C 3.53125 -3.003906 4.320312 -1.96875 5.90625 -1.96875 Z M 5.90625 -1.96875 "/></g></g><g transform="translate(237.675581, 128.541432)"><g><path d="M 4.65625 0.1875 C 3.507812 0.1875 2.664062 -0.117188 2.125 -0.734375 C 1.582031 -1.359375 1.3125 -2.253906 1.3125 -3.421875 L 1.3125 -10.15625 L 3.859375 -10.15625 L 3.859375 -3.75 C 3.859375 -3.125 3.988281 -2.671875 4.25 -2.390625 C 4.519531 -2.109375 4.9375 -1.96875 5.5 -1.96875 C 6.207031 -1.96875 6.753906 -2.195312 7.140625 -2.65625 C 7.535156 -3.125 7.734375 -3.851562 7.734375 -4.84375 L 7.734375 -10.15625 L 10.28125 -10.15625 L 10.28125 0 L 7.84375 0 L 7.84375 -1.484375 L 7.640625 -1.53125 C 7.316406 -0.945312 6.921875 -0.515625 6.453125 -0.234375 C 5.984375 0.046875 5.382812 0.1875 4.65625 0.1875 Z M 4.65625 0.1875 "/></g></g><g transform="translate(249.424277, 128.541432)"><g/></g><g transform="translate(253.871471, 128.541432)"><g><path d="M 5.015625 0.1875 C 4.210938 0.1875 3.503906 -0.00390625 2.890625 -0.390625 C 2.273438 -0.773438 1.789062 -1.363281 1.4375 -2.15625 C 1.082031 -2.945312 0.90625 -3.921875 0.90625 -5.078125 C 0.90625 -6.234375 1.082031 -7.207031 1.4375 -8 C 1.800781 -8.789062 2.300781 -9.378906 2.9375 -9.765625 C 3.570312 -10.148438 4.304688 -10.34375 5.140625 -10.34375 C 5.773438 -10.34375 6.320312 -10.234375 6.78125 -10.015625 C 7.25 -9.804688 7.644531 -9.46875 7.96875 -9 L 8.15625 -9.046875 L 8.15625 -14.234375 L 10.703125 -14.234375 L 10.703125 0 L 8.15625 0 L 8.15625 -1.3125 L 7.96875 -1.359375 C 7.6875 -0.878906 7.296875 -0.5 6.796875 -0.21875 C 6.304688 0.0507812 5.710938 0.1875 5.015625 0.1875 Z M 5.84375 -1.96875 C 6.5625 -1.96875 7.128906 -2.222656 7.546875 -2.734375 C 7.960938 -3.253906 8.171875 -4.035156 8.171875 -5.078125 C 8.171875 -6.117188 7.960938 -6.894531 7.546875 -7.40625 C 7.128906 -7.925781 6.5625 -8.1875 5.84375 -8.1875 C 5.09375 -8.1875 4.519531 -7.9375 4.125 -7.4375 C 3.726562 -6.9375 3.53125 -6.148438 3.53125 -5.078125 C 3.53125 -4.003906 3.726562 -3.21875 4.125 -2.71875 C 4.519531 -2.21875 5.09375 -1.96875 5.84375 -1.96875 Z M 5.84375 -1.96875 "/></g></g><g transform="translate(266.043709, 128.541432)"><g><path d="M 2.734375 -11.375 C 2.273438 -11.375 1.898438 -11.507812 1.609375 -11.78125 C 1.316406 -12.0625 1.171875 -12.425781 1.171875 -12.875 C 1.171875 -13.3125 1.316406 -13.664062 1.609375 -13.9375 C 1.898438 -14.21875 2.273438 -14.359375 2.734375 -14.359375 C 3.046875 -14.359375 3.316406 -14.296875 3.546875 -14.171875 C 3.785156 -14.046875 3.972656 -13.867188 4.109375 -13.640625 C 4.242188 -13.421875 4.3125 -13.164062 4.3125 -12.875 C 4.3125 -12.582031 4.242188 -12.320312 4.109375 -12.09375 C 3.972656 -11.875 3.785156 -11.695312 3.546875 -11.5625 C 3.316406 -11.4375 3.046875 -11.375 2.734375 -11.375 Z M 1.46875 0 L 1.46875 -10.15625 L 4.015625 -10.15625 L 4.015625 0 Z M 1.46875 0 "/></g></g><g transform="translate(271.51293, 128.541432)"><g><path d="M 7 -2.421875 L 7.671875 -0.53125 C 7.390625 -0.300781 7.039062 -0.125 6.625 0 C 6.207031 0.125 5.738281 0.1875 5.21875 0.1875 C 4.113281 0.1875 3.273438 -0.109375 2.703125 -0.703125 C 2.128906 -1.304688 1.84375 -2.175781 1.84375 -3.3125 L 1.84375 -8.140625 L 0.296875 -8.140625 L 0.296875 -10.171875 L 1.84375 -10.171875 L 1.84375 -12.140625 L 4.40625 -12.5625 L 4.40625 -10.171875 L 7.28125 -10.171875 L 7.28125 -8.140625 L 4.40625 -8.140625 L 4.40625 -3.5 C 4.40625 -3 4.507812 -2.628906 4.71875 -2.390625 C 4.925781 -2.160156 5.226562 -2.046875 5.625 -2.046875 C 6.082031 -2.046875 6.476562 -2.171875 6.8125 -2.421875 Z M 7 -2.421875 "/></g></g></g><g fill="#4caf50" fill-opacity="1"><g transform="translate(279.284011, 128.541432)"><g><path d="M 5.921875 0.1875 C 4.941406 0.1875 4.070312 -0.015625 3.3125 -0.421875 C 2.5625 -0.828125 1.972656 -1.425781 1.546875 -2.21875 C 1.117188 -3.007812 0.90625 -3.960938 0.90625 -5.078125 C 0.90625 -6.191406 1.117188 -7.144531 1.546875 -7.9375 C 1.972656 -8.726562 2.554688 -9.328125 3.296875 -9.734375 C 4.046875 -10.140625 4.90625 -10.34375 5.875 -10.34375 C 8.019531 -10.34375 9.390625 -9.566406 9.984375 -8.015625 L 8.234375 -6.765625 L 8.046875 -6.765625 C 7.835938 -7.242188 7.566406 -7.597656 7.234375 -7.828125 C 6.898438 -8.066406 6.445312 -8.1875 5.875 -8.1875 C 5.132812 -8.1875 4.554688 -7.929688 4.140625 -7.421875 C 3.734375 -6.910156 3.53125 -6.128906 3.53125 -5.078125 C 3.53125 -4.035156 3.738281 -3.253906 4.15625 -2.734375 C 4.570312 -2.222656 5.160156 -1.96875 5.921875 -1.96875 C 6.472656 -1.96875 6.941406 -2.113281 7.328125 -2.40625 C 7.710938 -2.707031 7.988281 -3.140625 8.15625 -3.703125 L 8.34375 -3.71875 L 10.15625 -2.71875 C 9.894531 -1.863281 9.414062 -1.164062 8.71875 -0.625 C 8.03125 -0.0820312 7.097656 0.1875 5.921875 0.1875 Z M 5.921875 0.1875 "/></g></g><g transform="translate(289.752872, 128.541432)"><g><path d="M 1.46875 0 L 1.46875 -14.234375 L 4.015625 -14.234375 L 4.015625 -8.828125 L 4.203125 -8.796875 C 4.546875 -9.296875 4.960938 -9.675781 5.453125 -9.9375 C 5.941406 -10.207031 6.535156 -10.34375 7.234375 -10.34375 C 9.472656 -10.34375 10.59375 -9.070312 10.59375 -6.53125 L 10.59375 0 L 8.046875 0 L 8.046875 -6.21875 C 8.046875 -6.90625 7.90625 -7.40625 7.625 -7.71875 C 7.34375 -8.039062 6.910156 -8.203125 6.328125 -8.203125 C 5.617188 -8.203125 5.054688 -7.960938 4.640625 -7.484375 C 4.222656 -7.003906 4.015625 -6.265625 4.015625 -5.265625 L 4.015625 0 Z M 1.46875 0 "/></g></g><g transform="translate(301.648887, 128.541432)"><g/></g><g transform="translate(306.096081, 128.541432)"><g><path d="M 7 -2.421875 L 7.671875 -0.53125 C 7.390625 -0.300781 7.039062 -0.125 6.625 0 C 6.207031 0.125 5.738281 0.1875 5.21875 0.1875 C 4.113281 0.1875 3.273438 -0.109375 2.703125 -0.703125 C 2.128906 -1.304688 1.84375 -2.175781 1.84375 -3.3125 L 1.84375 -8.140625 L 0.296875 -8.140625 L 0.296875 -10.171875 L 1.84375 -10.171875 L 1.84375 -12.140625 L 4.40625 -12.5625 L 4.40625 -10.171875 L 7.28125 -10.171875 L 7.28125 -8.140625 L 4.40625 -8.140625 L 4.40625 -3.5 C 4.40625 -3 4.507812 -2.628906 4.71875 -2.390625 C 4.925781 -2.160156 5.226562 -2.046875 5.625 -2.046875 C 6.082031 -2.046875 6.476562 -2.171875 6.8125 -2.421875 Z M 7 -2.421875 "/></g></g><g transform="translate(313.986859, 128.541432)"><g><path d="M 1.46875 0 L 1.46875 -14.234375 L 4.015625 -14.234375 L 4.015625 -8.828125 L 4.203125 -8.796875 C 4.546875 -9.296875 4.960938 -9.675781 5.453125 -9.9375 C 5.941406 -10.207031 6.535156 -10.34375 7.234375 -10.34375 C 9.472656 -10.34375 10.59375 -9.070312 10.59375 -6.53125 L 10.59375 0 L 8.046875 0 L 8.046875 -6.21875 C 8.046875 -6.90625 7.90625 -7.40625 7.625 -7.71875 C 7.34375 -8.039062 6.910156 -8.203125 6.328125 -8.203125 C 5.617188 -8.203125 5.054688 -7.960938 4.640625 -7.484375 C 4.222656 -7.003906 4.015625 -6.265625 4.015625 -5.265625 L 4.015625 0 Z M 1.46875 0 "/></g></g><g transform="translate(325.882874, 128.541432)"><g><path d="M 10.03125 -4.5 L 3.515625 -4.5 C 3.585938 -3.613281 3.835938 -2.96875 4.265625 -2.5625 C 4.691406 -2.164062 5.273438 -1.96875 6.015625 -1.96875 C 6.597656 -1.96875 7.070312 -2.078125 7.4375 -2.296875 C 7.800781 -2.515625 8.09375 -2.84375 8.3125 -3.28125 L 8.515625 -3.28125 L 10.203125 -2.203125 C 9.867188 -1.484375 9.367188 -0.90625 8.703125 -0.46875 C 8.035156 -0.03125 7.140625 0.1875 6.015625 0.1875 C 4.972656 0.1875 4.066406 -0.0078125 3.296875 -0.40625 C 2.535156 -0.800781 1.945312 -1.394531 1.53125 -2.1875 C 1.113281 -2.976562 0.90625 -3.941406 0.90625 -5.078125 C 0.90625 -6.234375 1.125 -7.207031 1.5625 -8 C 2 -8.789062 2.585938 -9.378906 3.328125 -9.765625 C 4.078125 -10.148438 4.914062 -10.34375 5.84375 -10.34375 C 7.28125 -10.34375 8.378906 -9.960938 9.140625 -9.203125 C 9.898438 -8.441406 10.28125 -7.328125 10.28125 -5.859375 C 10.28125 -5.328125 10.265625 -4.910156 10.234375 -4.609375 Z M 7.84375 -6.15625 C 7.820312 -6.925781 7.644531 -7.488281 7.3125 -7.84375 C 6.976562 -8.195312 6.488281 -8.375 5.84375 -8.375 C 4.550781 -8.375 3.789062 -7.632812 3.5625 -6.15625 Z M 7.84375 -6.15625 "/></g></g><g transform="translate(336.922597, 128.541432)"><g/></g><g transform="translate(341.369791, 128.541432)"><g><path d="M 1.46875 4.109375 L 1.46875 -10.15625 L 4.015625 -10.15625 L 4.015625 -8.828125 L 4.203125 -8.796875 C 4.503906 -9.304688 4.90625 -9.691406 5.40625 -9.953125 C 5.914062 -10.210938 6.507812 -10.34375 7.1875 -10.34375 C 8 -10.34375 8.707031 -10.148438 9.3125 -9.765625 C 9.925781 -9.378906 10.40625 -8.789062 10.75 -8 C 11.09375 -7.21875 11.265625 -6.242188 11.265625 -5.078125 C 11.265625 -3.910156 11.082031 -2.929688 10.71875 -2.140625 C 10.363281 -1.359375 9.863281 -0.773438 9.21875 -0.390625 C 8.582031 -0.00390625 7.847656 0.1875 7.015625 0.1875 C 6.378906 0.1875 5.832031 0.0820312 5.375 -0.125 C 4.914062 -0.332031 4.523438 -0.660156 4.203125 -1.109375 L 4.015625 -1.078125 L 4.015625 4.109375 Z M 6.3125 -1.96875 C 7.070312 -1.96875 7.644531 -2.21875 8.03125 -2.71875 C 8.425781 -3.21875 8.625 -4.003906 8.625 -5.078125 C 8.625 -6.148438 8.425781 -6.9375 8.03125 -7.4375 C 7.644531 -7.9375 7.070312 -8.1875 6.3125 -8.1875 C 5.59375 -8.1875 5.023438 -7.925781 4.609375 -7.40625 C 4.191406 -6.894531 3.984375 -6.117188 3.984375 -5.078125 C 3.984375 -4.035156 4.191406 -3.253906 4.609375 -2.734375 C 5.023438 -2.222656 5.59375 -1.96875 6.3125 -1.96875 Z M 6.3125 -1.96875 "/></g></g><g transform="translate(353.532822, 128.541432)"><g><path d="M 10.03125 -4.5 L 3.515625 -4.5 C 3.585938 -3.613281 3.835938 -2.96875 4.265625 -2.5625 C 4.691406 -2.164062 5.273438 -1.96875 6.015625 -1.96875 C 6.597656 -1.96875 7.070312 -2.078125 7.4375 -2.296875 C 7.800781 -2.515625 8.09375 -2.84375 8.3125 -3.28125 L 8.515625 -3.28125 L 10.203125 -2.203125 C 9.867188 -1.484375 9.367188 -0.90625 8.703125 -0.46875 C 8.035156 -0.03125 7.140625 0.1875 6.015625 0.1875 C 4.972656 0.1875 4.066406 -0.0078125 3.296875 -0.40625 C 2.535156 -0.800781 1.945312 -1.394531 1.53125 -2.1875 C 1.113281 -2.976562 0.90625 -3.941406 0.90625 -5.078125 C 0.90625 -6.234375 1.125 -7.207031 1.5625 -8 C 2 -8.789062 2.585938 -9.378906 3.328125 -9.765625 C 4.078125 -10.148438 4.914062 -10.34375 5.84375 -10.34375 C 7.28125 -10.34375 8.378906 -9.960938 9.140625 -9.203125 C 9.898438 -8.441406 10.28125 -7.328125 10.28125 -5.859375 C 10.28125 -5.328125 10.265625 -4.910156 10.234375 -4.609375 Z M 7.84375 -6.15625 C 7.820312 -6.925781 7.644531 -7.488281 7.3125 -7.84375 C 6.976562 -8.195312 6.488281 -8.375 5.84375 -8.375 C 4.550781 -8.375 3.789062 -7.632812 3.5625 -6.15625 Z M 7.84375 -6.15625 "/></g></g><g transform="translate(364.572545, 128.541432)"><g><path d="M 4.75 0.1875 C 4.0625 0.1875 3.425781 0.109375 2.84375 -0.046875 C 2.269531 -0.210938 1.773438 -0.4375 1.359375 -0.71875 C 0.953125 -1.007812 0.648438 -1.335938 0.453125 -1.703125 L 1.875 -3.234375 L 2.078125 -3.234375 C 2.410156 -2.773438 2.804688 -2.429688 3.265625 -2.203125 C 3.722656 -1.984375 4.222656 -1.875 4.765625 -1.875 C 5.265625 -1.875 5.640625 -1.960938 5.890625 -2.140625 C 6.140625 -2.316406 6.265625 -2.570312 6.265625 -2.90625 C 6.265625 -3.15625 6.175781 -3.367188 6 -3.546875 C 5.820312 -3.722656 5.53125 -3.859375 5.125 -3.953125 L 3.78125 -4.28125 C 2.769531 -4.519531 2.03125 -4.882812 1.5625 -5.375 C 1.101562 -5.875 0.875 -6.503906 0.875 -7.265625 C 0.875 -7.898438 1.035156 -8.445312 1.359375 -8.90625 C 1.679688 -9.375 2.132812 -9.726562 2.71875 -9.96875 C 3.300781 -10.21875 3.984375 -10.34375 4.765625 -10.34375 C 5.679688 -10.34375 6.441406 -10.210938 7.046875 -9.953125 C 7.648438 -9.691406 8.117188 -9.335938 8.453125 -8.890625 L 7.09375 -7.421875 L 6.90625 -7.421875 C 6.625 -7.742188 6.304688 -7.976562 5.953125 -8.125 C 5.597656 -8.269531 5.203125 -8.34375 4.765625 -8.34375 C 3.765625 -8.34375 3.265625 -8.03125 3.265625 -7.40625 C 3.265625 -7.132812 3.359375 -6.914062 3.546875 -6.75 C 3.734375 -6.59375 4.0625 -6.460938 4.53125 -6.359375 L 5.78125 -6.078125 C 6.8125 -5.859375 7.5625 -5.503906 8.03125 -5.015625 C 8.507812 -4.523438 8.75 -3.867188 8.75 -3.046875 C 8.75 -2.398438 8.585938 -1.832031 8.265625 -1.34375 C 7.953125 -0.851562 7.492188 -0.472656 6.890625 -0.203125 C 6.296875 0.0546875 5.582031 0.1875 4.75 0.1875 Z M 4.75 0.1875 "/></g></g><g transform="translate(373.936513, 128.541432)"><g><path d="M 7 -2.421875 L 7.671875 -0.53125 C 7.390625 -0.300781 7.039062 -0.125 6.625 0 C 6.207031 0.125 5.738281 0.1875 5.21875 0.1875 C 4.113281 0.1875 3.273438 -0.109375 2.703125 -0.703125 C 2.128906 -1.304688 1.84375 -2.175781 1.84375 -3.3125 L 1.84375 -8.140625 L 0.296875 -8.140625 L 0.296875 -10.171875 L 1.84375 -10.171875 L 1.84375 -12.140625 L 4.40625 -12.5625 L 4.40625 -10.171875 L 7.28125 -10.171875 L 7.28125 -8.140625 L 4.40625 -8.140625 L 4.40625 -3.5 C 4.40625 -3 4.507812 -2.628906 4.71875 -2.390625 C 4.925781 -2.160156 5.226562 -2.046875 5.625 -2.046875 C 6.082031 -2.046875 6.476562 -2.171875 6.8125 -2.421875 Z M 7 -2.421875 "/></g></g><g transform="translate(381.827291, 128.541432)"><g><path d="M 4.109375 -4.46875 L 1.8125 -4.46875 L 1.625 -13.46875 L 4.296875 -13.46875 Z M 2.953125 0.09375 C 2.640625 0.09375 2.359375 0.03125 2.109375 -0.09375 C 1.867188 -0.226562 1.679688 -0.40625 1.546875 -0.625 C 1.421875 -0.851562 1.359375 -1.113281 1.359375 -1.40625 C 1.359375 -1.6875 1.421875 -1.941406 1.546875 -2.171875 C 1.679688 -2.398438 1.867188 -2.578125 2.109375 -2.703125 C 2.359375 -2.835938 2.640625 -2.90625 2.953125 -2.90625 C 3.429688 -2.90625 3.816406 -2.765625 4.109375 -2.484375 C 4.398438 -2.203125 4.546875 -1.84375 4.546875 -1.40625 C 4.546875 -0.96875 4.398438 -0.609375 4.109375 -0.328125 C 3.816406 -0.046875 3.429688 0.09375 2.953125 0.09375 Z M 2.953125 0.09375 "/></g></g></g><path fill="#000000" d="M 251.535156 60.203125 C 251.457031 60.132812 251.363281 60.101562 251.261719 60.105469 C 250.371094 60.148438 249.421875 60.191406 248.480469 60.625 C 247.539062 61.0625 246.6875 61.84375 245.851562 62.601562 C 245.773438 62.671875 245.734375 62.757812 245.726562 62.863281 C 245.722656 62.964844 245.753906 63.058594 245.824219 63.132812 C 245.894531 63.210938 245.984375 63.253906 246.089844 63.257812 C 246.191406 63.261719 246.285156 63.230469 246.359375 63.160156 C 247.195312 62.402344 248.019531 61.671875 248.800781 61.3125 C 249.582031 60.949219 250.410156 60.902344 251.296875 60.863281 C 251.402344 60.855469 251.488281 60.816406 251.558594 60.738281 C 251.628906 60.660156 251.664062 60.570312 251.65625 60.464844 C 251.652344 60.363281 251.609375 60.273438 251.535156 60.203125 Z M 251.535156 60.203125 " fill-opacity="1" fill-rule="nonzero"/><path fill="#000000" d="M 252.570312 61.113281 C 252.492188 61.226562 252.394531 61.324219 252.277344 61.398438 C 252.164062 61.476562 252.039062 61.527344 251.902344 61.554688 C 251.765625 61.578125 251.628906 61.578125 251.492188 61.550781 C 251.359375 61.523438 251.234375 61.46875 251.117188 61.390625 C 251.003906 61.316406 250.90625 61.21875 250.832031 61.101562 C 250.753906 60.988281 250.703125 60.863281 250.675781 60.726562 C 250.652344 60.589844 250.652344 60.457031 250.679688 60.320312 C 250.707031 60.183594 250.761719 60.0625 250.839844 59.945312 C 250.914062 59.832031 251.011719 59.738281 251.128906 59.660156 C 251.242188 59.585938 251.371094 59.535156 251.507812 59.507812 C 251.640625 59.480469 251.777344 59.480469 251.914062 59.511719 C 252.050781 59.539062 252.175781 59.589844 252.289062 59.667969 C 252.402344 59.746094 252.5 59.839844 252.574219 59.957031 C 252.652344 60.070312 252.703125 60.199219 252.730469 60.332031 C 252.757812 60.46875 252.753906 60.605469 252.726562 60.738281 C 252.699219 60.875 252.648438 61 252.570312 61.113281 Z M 252.570312 61.113281 " fill-opacity="1" fill-rule="nonzero"/><path fill="#000000" d="M 242.148438 53.871094 C 242.242188 53.917969 242.304688 53.988281 242.339844 54.085938 C 242.628906 54.925781 242.945312 55.816406 242.886719 56.851562 C 242.832031 57.886719 242.417969 58.964844 242.023438 60.019531 C 241.988281 60.117188 241.921875 60.1875 241.828125 60.230469 C 241.730469 60.273438 241.636719 60.277344 241.535156 60.242188 C 241.4375 60.203125 241.367188 60.136719 241.324219 60.042969 C 241.28125 59.949219 241.277344 59.851562 241.316406 59.753906 C 241.707031 58.699219 242.082031 57.667969 242.128906 56.8125 C 242.179688 55.953125 241.914062 55.171875 241.621094 54.332031 C 241.589844 54.234375 241.59375 54.140625 241.640625 54.046875 C 241.6875 53.953125 241.757812 53.886719 241.859375 53.855469 C 241.957031 53.820312 242.054688 53.824219 242.148438 53.871094 Z M 242.148438 53.871094 " fill-opacity="1" fill-rule="nonzero"/><g clip-path="url(#4ffce066dc)"><path fill="#000000" d="M 240.914062 53.25 C 240.835938 53.363281 240.785156 53.488281 240.757812 53.625 C 240.730469 53.761719 240.726562 53.894531 240.753906 54.03125 C 240.78125 54.167969 240.832031 54.292969 240.90625 54.40625 C 240.984375 54.523438 241.078125 54.621094 241.195312 54.695312 C 241.308594 54.773438 241.433594 54.828125 241.570312 54.855469 C 241.707031 54.882812 241.84375 54.882812 241.976562 54.855469 C 242.113281 54.832031 242.238281 54.78125 242.355469 54.703125 C 242.472656 54.628906 242.566406 54.53125 242.644531 54.417969 C 242.722656 54.304688 242.777344 54.179688 242.804688 54.042969 C 242.832031 53.910156 242.832031 53.773438 242.804688 53.636719 C 242.78125 53.503906 242.730469 53.375 242.652344 53.261719 C 242.578125 53.144531 242.480469 53.050781 242.367188 52.972656 C 242.25 52.894531 242.125 52.84375 241.992188 52.816406 C 241.855469 52.785156 241.71875 52.785156 241.582031 52.8125 C 241.445312 52.839844 241.320312 52.890625 241.207031 52.964844 C 241.089844 53.042969 240.992188 53.136719 240.914062 53.25 Z M 240.914062 53.25 " fill-opacity="1" fill-rule="nonzero"/></g><g clip-path="url(#ffbdeb604c)"><path fill="#000000" d="M 244.351562 60.53125 C 240.785156 58.125 235.980469 58.988281 233.621094 62.460938 C 231.355469 65.8125 232.1875 70.394531 235.515625 72.875 C 235.332031 73.136719 235.140625 73.394531 234.945312 73.648438 C 234.867188 73.753906 234.785156 73.855469 234.703125 73.957031 C 234.472656 74.242188 234.238281 74.527344 234 74.808594 C 233.925781 74.894531 233.851562 74.984375 233.777344 75.070312 C 233.472656 75.421875 233.15625 75.765625 232.832031 76.101562 C 232.761719 76.175781 232.6875 76.25 232.617188 76.320312 C 232.347656 76.59375 232.078125 76.863281 231.796875 77.125 C 231.703125 77.21875 231.605469 77.3125 231.507812 77.402344 C 231.15625 77.726562 230.804688 78.042969 230.441406 78.351562 C 230.035156 78.695312 229.617188 79.027344 229.191406 79.351562 L 229.191406 79.355469 C 228.765625 79.675781 228.335938 79.988281 227.894531 80.289062 C 227.457031 80.589844 227.011719 80.878906 226.558594 81.152344 C 226.109375 81.429688 225.652344 81.691406 225.191406 81.941406 C 224.730469 82.191406 224.265625 82.425781 223.796875 82.648438 C 223.328125 82.871094 222.855469 83.078125 222.382812 83.269531 C 221.910156 83.464844 221.433594 83.644531 220.957031 83.808594 C 220.480469 83.972656 220.003906 84.121094 219.527344 84.253906 C 219.050781 84.386719 218.578125 84.507812 218.101562 84.609375 C 217.628906 84.710938 217.15625 84.796875 216.6875 84.871094 C 216.023438 84.957031 215.367188 85.011719 214.722656 85.035156 L 214.875 85.8125 C 215.003906 86.253906 215.152344 86.695312 215.316406 87.125 C 215.484375 87.558594 215.671875 87.980469 215.875 88.398438 C 216.078125 88.8125 216.300781 89.21875 216.542969 89.617188 C 216.78125 90.015625 217.039062 90.402344 217.3125 90.777344 C 217.585938 91.152344 217.875 91.511719 218.179688 91.863281 C 218.484375 92.214844 218.804688 92.550781 219.140625 92.871094 C 219.476562 93.195312 219.824219 93.503906 220.183594 93.792969 C 220.546875 94.085938 220.921875 94.363281 221.304688 94.625 C 221.5 94.753906 221.695312 94.878906 221.890625 95 C 222.089844 95.121094 222.292969 95.238281 222.496094 95.351562 C 222.902344 95.578125 223.316406 95.785156 223.742188 95.976562 C 224.167969 96.167969 224.597656 96.335938 225.039062 96.488281 C 225.476562 96.644531 225.921875 96.777344 226.375 96.890625 C 226.824219 97.003906 227.28125 97.097656 227.738281 97.171875 C 228.199219 97.246094 228.660156 97.300781 229.125 97.335938 C 229.585938 97.371094 230.050781 97.386719 230.515625 97.378906 C 230.980469 97.375 231.445312 97.347656 231.90625 97.300781 L 232.683594 97.15625 C 232.464844 96.550781 232.273438 95.921875 232.109375 95.277344 C 232 94.816406 231.90625 94.34375 231.824219 93.867188 C 231.746094 93.390625 231.679688 92.90625 231.625 92.417969 C 231.574219 91.925781 231.535156 91.429688 231.511719 90.929688 C 231.488281 90.425781 231.476562 89.921875 231.480469 89.410156 C 231.488281 88.898438 231.503906 88.386719 231.539062 87.871094 C 231.570312 87.355469 231.617188 86.835938 231.679688 86.316406 C 231.742188 85.796875 231.816406 85.277344 231.90625 84.757812 C 231.992188 84.238281 232.097656 83.71875 232.214844 83.203125 C 232.332031 82.683594 232.460938 82.167969 232.605469 81.65625 C 232.605469 81.65625 232.605469 81.65625 232.605469 81.652344 C 232.746094 81.144531 232.90625 80.636719 233.074219 80.132812 L 233.074219 80.125 C 233.226562 79.675781 233.390625 79.230469 233.5625 78.792969 C 233.609375 78.664062 233.660156 78.539062 233.710938 78.414062 C 233.851562 78.0625 234 77.710938 234.152344 77.367188 C 234.195312 77.269531 234.238281 77.171875 234.28125 77.078125 C 234.476562 76.652344 234.679688 76.234375 234.890625 75.824219 C 234.945312 75.71875 235 75.617188 235.054688 75.511719 C 235.226562 75.191406 235.402344 74.871094 235.582031 74.558594 C 235.648438 74.441406 235.714844 74.324219 235.785156 74.210938 C 235.949219 73.9375 236.117188 73.664062 236.289062 73.394531 C 239.839844 75.554688 244.414062 74.625 246.699219 71.28125 C 249.058594 67.8125 248.074219 63.042969 244.507812 60.636719 C 244.480469 60.621094 244.453125 60.605469 244.425781 60.589844 C 244.402344 60.570312 244.378906 60.550781 244.351562 60.53125 Z M 244.351562 60.53125 " fill-opacity="1" fill-rule="nonzero"/></g><g clip-path="url(#8376763ea0)"><path fill="#fb0003" d="M 238.34375 67.976562 C 237.804688 67.636719 237.253906 67.328125 236.679688 67.054688 C 235.828125 66.671875 234.953125 66.367188 234.046875 66.140625 C 233.144531 65.910156 232.226562 65.761719 231.300781 65.691406 C 230.371094 65.625 229.445312 65.636719 228.515625 65.726562 C 227.589844 65.820312 226.679688 65.992188 225.785156 66.242188 C 224.890625 66.492188 224.027344 66.816406 223.191406 67.21875 C 222.355469 67.621094 221.558594 68.089844 220.808594 68.632812 C 220.054688 69.171875 219.355469 69.773438 218.710938 70.4375 C 218.066406 71.097656 217.484375 71.8125 216.964844 72.574219 C 216.445312 73.339844 215.996094 74.144531 215.617188 74.988281 C 215.242188 75.832031 214.941406 76.703125 214.714844 77.597656 C 214.492188 78.496094 214.347656 79.40625 214.285156 80.328125 C 214.222656 81.25 214.238281 82.171875 214.339844 83.09375 C 214.425781 83.75 214.554688 84.394531 214.722656 85.035156 C 215.367188 85.011719 216.023438 84.957031 216.6875 84.871094 C 217.628906 84.726562 218.574219 84.523438 219.53125 84.253906 C 220.484375 83.988281 221.433594 83.660156 222.382812 83.269531 C 223.332031 82.882812 224.269531 82.441406 225.191406 81.941406 C 226.113281 81.441406 227.015625 80.890625 227.894531 80.289062 C 228.773438 79.6875 229.625 79.042969 230.441406 78.351562 C 230.730469 78.105469 231.015625 77.855469 231.296875 77.601562 C 231.578125 77.34375 231.851562 77.085938 232.121094 76.820312 C 232.394531 76.558594 232.65625 76.289062 232.917969 76.015625 C 233.175781 75.742188 233.433594 75.464844 233.679688 75.183594 C 233.929688 74.902344 234.171875 74.617188 234.40625 74.328125 C 234.644531 74.042969 234.875 73.75 235.097656 73.453125 C 235.324219 73.160156 235.539062 72.859375 235.75 72.558594 C 235.960938 72.257812 236.164062 71.957031 236.363281 71.648438 C 236.558594 71.34375 236.75 71.035156 236.933594 70.726562 C 237.117188 70.414062 237.292969 70.101562 237.460938 69.789062 C 237.628906 69.476562 237.789062 69.160156 237.945312 68.84375 C 238.082031 68.554688 238.214844 68.265625 238.34375 67.976562 Z M 238.34375 67.976562 " fill-opacity="1" fill-rule="nonzero"/></g><g clip-path="url(#13371cb432)"><path fill="#fb0003" d="M 232.683594 97.15625 C 233.34375 97.074219 233.992188 96.949219 234.636719 96.789062 C 235.53125 96.539062 236.394531 96.210938 237.230469 95.808594 C 238.070312 95.410156 238.863281 94.9375 239.613281 94.398438 C 240.367188 93.859375 241.066406 93.257812 241.710938 92.59375 C 242.359375 91.929688 242.941406 91.21875 243.460938 90.453125 C 243.640625 90.1875 243.808594 89.921875 243.972656 89.644531 C 244.136719 89.371094 244.289062 89.09375 244.4375 88.808594 C 244.582031 88.523438 244.71875 88.234375 244.847656 87.945312 C 244.976562 87.652344 245.097656 87.355469 245.207031 87.054688 C 245.316406 86.757812 245.417969 86.453125 245.507812 86.148438 C 245.601562 85.84375 245.683594 85.535156 245.757812 85.222656 C 245.828125 84.914062 245.894531 84.601562 245.949219 84.285156 C 246 83.972656 246.046875 83.65625 246.082031 83.335938 C 246.117188 83.019531 246.140625 82.703125 246.15625 82.382812 C 246.171875 82.0625 246.175781 81.742188 246.171875 81.425781 C 246.167969 81.105469 246.15625 80.785156 246.132812 80.464844 C 246.109375 80.148438 246.074219 79.828125 246.035156 79.511719 C 245.992188 79.195312 245.9375 78.878906 245.875 78.566406 C 245.816406 78.253906 245.742188 77.941406 245.664062 77.628906 C 245.582031 77.320312 245.492188 77.011719 245.390625 76.707031 C 245.292969 76.402344 245.183594 76.101562 245.066406 75.804688 C 244.949219 75.507812 244.820312 75.210938 244.6875 74.921875 C 244.550781 74.628906 244.40625 74.34375 244.253906 74.0625 C 244.101562 73.78125 243.9375 73.503906 243.769531 73.230469 C 243.601562 72.957031 243.421875 72.691406 243.234375 72.425781 C 243.050781 72.164062 242.855469 71.910156 242.65625 71.660156 C 242.453125 71.410156 242.246094 71.164062 242.027344 70.925781 C 241.8125 70.6875 241.589844 70.457031 241.359375 70.230469 C 241.128906 70.007812 240.890625 69.789062 240.648438 69.578125 C 240.40625 69.367188 240.15625 69.164062 239.902344 68.96875 C 239.890625 68.960938 239.878906 68.953125 239.867188 68.945312 C 239.691406 69.109375 239.515625 69.273438 239.339844 69.445312 C 238.664062 70.164062 238.019531 70.9375 237.410156 71.757812 C 236.800781 72.578125 236.230469 73.441406 235.699219 74.347656 C 235.167969 75.25 234.683594 76.1875 234.246094 77.15625 C 233.804688 78.125 233.414062 79.113281 233.074219 80.128906 C 232.734375 81.140625 232.449219 82.164062 232.214844 83.203125 C 231.980469 84.238281 231.800781 85.277344 231.679688 86.316406 C 231.558594 87.359375 231.492188 88.386719 231.484375 89.410156 C 231.472656 90.429688 231.523438 91.433594 231.625 92.417969 C 231.730469 93.398438 231.890625 94.351562 232.109375 95.277344 C 232.273438 95.921875 232.464844 96.546875 232.683594 97.15625 Z M 232.683594 97.15625 " fill-opacity="1" fill-rule="nonzero"/></g><path fill="#000000" d="M 227.816406 78.246094 C 227.476562 78.441406 227.121094 78.582031 226.753906 78.671875 C 226.386719 78.761719 226.035156 78.789062 225.695312 78.757812 C 225.359375 78.726562 225.058594 78.636719 224.800781 78.488281 C 224.542969 78.339844 224.34375 78.144531 224.203125 77.90625 C 224.0625 77.664062 223.996094 77.398438 223.996094 77.101562 C 223.996094 76.800781 224.066406 76.5 224.210938 76.191406 C 224.351562 75.882812 224.550781 75.59375 224.8125 75.320312 C 225.070312 75.046875 225.371094 74.8125 225.710938 74.617188 C 226.050781 74.421875 226.402344 74.28125 226.769531 74.191406 C 227.136719 74.105469 227.492188 74.074219 227.828125 74.105469 C 228.167969 74.140625 228.464844 74.230469 228.726562 74.375 C 228.984375 74.523438 229.183594 74.71875 229.324219 74.957031 C 229.460938 75.199219 229.53125 75.46875 229.53125 75.765625 C 229.527344 76.0625 229.457031 76.363281 229.316406 76.671875 C 229.175781 76.980469 228.972656 77.269531 228.714844 77.542969 C 228.453125 77.816406 228.152344 78.050781 227.816406 78.246094 Z M 227.816406 78.246094 " fill-opacity="1" fill-rule="nonzero"/><path fill="#000000" d="M 234.148438 82.519531 C 234.089844 82.90625 234.089844 83.285156 234.144531 83.65625 C 234.199219 84.027344 234.300781 84.367188 234.457031 84.667969 C 234.613281 84.96875 234.808594 85.210938 235.042969 85.398438 C 235.273438 85.582031 235.527344 85.695312 235.804688 85.734375 C 236.082031 85.773438 236.355469 85.738281 236.632812 85.625 C 236.910156 85.515625 237.164062 85.335938 237.398438 85.089844 C 237.632812 84.847656 237.832031 84.550781 237.988281 84.210938 C 238.144531 83.867188 238.253906 83.503906 238.308594 83.117188 C 238.363281 82.730469 238.367188 82.351562 238.3125 81.980469 C 238.257812 81.605469 238.152344 81.269531 237.996094 80.96875 C 237.84375 80.667969 237.648438 80.421875 237.414062 80.238281 C 237.179688 80.054688 236.925781 79.941406 236.652344 79.902344 C 236.375 79.863281 236.097656 79.898438 235.820312 80.007812 C 235.546875 80.121094 235.289062 80.300781 235.054688 80.542969 C 234.820312 80.789062 234.625 81.082031 234.46875 81.425781 C 234.308594 81.765625 234.203125 82.132812 234.148438 82.519531 Z M 234.148438 82.519531 " fill-opacity="1" fill-rule="nonzero"/><path fill="#000000" d="M 221.910156 73.222656 C 221.726562 73.433594 221.519531 73.609375 221.292969 73.75 C 221.066406 73.894531 220.832031 73.992188 220.597656 74.046875 C 220.359375 74.101562 220.136719 74.109375 219.929688 74.066406 C 219.71875 74.027344 219.539062 73.941406 219.386719 73.808594 C 219.238281 73.675781 219.128906 73.511719 219.058594 73.308594 C 218.988281 73.105469 218.964844 72.886719 218.988281 72.644531 C 219.011719 72.40625 219.082031 72.164062 219.191406 71.917969 C 219.304688 71.675781 219.453125 71.449219 219.636719 71.238281 C 219.820312 71.03125 220.023438 70.855469 220.25 70.710938 C 220.480469 70.570312 220.710938 70.46875 220.945312 70.414062 C 221.183594 70.359375 221.40625 70.355469 221.617188 70.394531 C 221.824219 70.4375 222.003906 70.523438 222.15625 70.65625 C 222.308594 70.785156 222.417969 70.953125 222.484375 71.15625 C 222.554688 71.355469 222.578125 71.578125 222.554688 71.816406 C 222.53125 72.058594 222.464844 72.300781 222.351562 72.542969 C 222.242188 72.789062 222.09375 73.015625 221.910156 73.222656 Z M 221.910156 73.222656 " fill-opacity="1" fill-rule="nonzero"/><path fill="#000000" d="M 241.019531 86.117188 C 240.894531 86.363281 240.804688 86.621094 240.757812 86.882812 C 240.707031 87.148438 240.703125 87.398438 240.738281 87.636719 C 240.777344 87.875 240.851562 88.085938 240.96875 88.265625 C 241.085938 88.441406 241.234375 88.578125 241.410156 88.667969 C 241.589844 88.757812 241.785156 88.796875 242 88.789062 C 242.214844 88.777344 242.425781 88.714844 242.644531 88.605469 C 242.859375 88.492188 243.058594 88.339844 243.246094 88.148438 C 243.429688 87.953125 243.585938 87.734375 243.710938 87.484375 C 243.839844 87.238281 243.925781 86.980469 243.976562 86.71875 C 244.023438 86.457031 244.03125 86.203125 243.992188 85.964844 C 243.957031 85.726562 243.878906 85.515625 243.761719 85.339844 C 243.648438 85.160156 243.5 85.027344 243.320312 84.933594 C 243.140625 84.84375 242.945312 84.804688 242.734375 84.816406 C 242.519531 84.828125 242.304688 84.886719 242.089844 84.996094 C 241.875 85.109375 241.671875 85.261719 241.488281 85.457031 C 241.304688 85.648438 241.148438 85.871094 241.019531 86.117188 Z M 241.019531 86.117188 " fill-opacity="1" fill-rule="nonzero"/><path fill="#000000" d="M 219.183594 81.070312 C 219.222656 81.292969 219.222656 81.515625 219.183594 81.730469 C 219.148438 81.949219 219.074219 82.148438 218.964844 82.332031 C 218.855469 82.511719 218.71875 82.660156 218.554688 82.777344 C 218.390625 82.894531 218.214844 82.96875 218.019531 83 C 217.828125 83.035156 217.632812 83.023438 217.441406 82.96875 C 217.25 82.917969 217.070312 82.820312 216.90625 82.6875 C 216.742188 82.554688 216.605469 82.390625 216.496094 82.199219 C 216.386719 82.007812 216.308594 81.800781 216.273438 81.578125 C 216.234375 81.355469 216.230469 81.132812 216.269531 80.917969 C 216.308594 80.699219 216.382812 80.5 216.492188 80.316406 C 216.601562 80.136719 216.734375 79.988281 216.898438 79.871094 C 217.0625 79.757812 217.242188 79.679688 217.433594 79.648438 C 217.628906 79.613281 217.820312 79.625 218.015625 79.679688 C 218.207031 79.734375 218.386719 79.828125 218.550781 79.960938 C 218.714844 80.09375 218.851562 80.257812 218.960938 80.449219 C 219.070312 80.640625 219.144531 80.847656 219.183594 81.070312 Z M 219.183594 81.070312 " fill-opacity="1" fill-rule="nonzero"/><path fill="#000000" d="M 234.71875 91.554688 C 234.5 91.601562 234.292969 91.683594 234.105469 91.796875 C 233.914062 91.914062 233.757812 92.054688 233.628906 92.222656 C 233.5 92.390625 233.414062 92.574219 233.363281 92.769531 C 233.316406 92.960938 233.3125 93.15625 233.355469 93.347656 C 233.394531 93.539062 233.476562 93.710938 233.597656 93.871094 C 233.71875 94.03125 233.875 94.160156 234.058594 94.261719 C 234.246094 94.363281 234.449219 94.429688 234.667969 94.460938 C 234.886719 94.492188 235.109375 94.484375 235.332031 94.4375 C 235.550781 94.390625 235.757812 94.308594 235.945312 94.191406 C 236.136719 94.074219 236.292969 93.933594 236.421875 93.765625 C 236.550781 93.597656 236.636719 93.417969 236.6875 93.222656 C 236.734375 93.027344 236.738281 92.835938 236.695312 92.644531 C 236.65625 92.453125 236.574219 92.277344 236.453125 92.117188 C 236.332031 91.960938 236.175781 91.828125 235.992188 91.726562 C 235.804688 91.625 235.601562 91.558594 235.382812 91.527344 C 235.164062 91.5 234.941406 91.507812 234.71875 91.554688 Z M 234.71875 91.554688 " fill-opacity="1" fill-rule="nonzero"/><path fill="#000000" d="M 231.113281 70.3125 C 230.886719 70.367188 230.65625 70.386719 230.429688 70.367188 C 230.203125 70.347656 229.992188 70.296875 229.796875 70.207031 C 229.605469 70.117188 229.445312 70 229.316406 69.855469 C 229.1875 69.707031 229.101562 69.542969 229.054688 69.363281 C 229.011719 69.183594 229.011719 68.996094 229.058594 68.808594 C 229.105469 68.621094 229.195312 68.441406 229.324219 68.273438 C 229.453125 68.105469 229.617188 67.960938 229.808594 67.839844 C 230.003906 67.71875 230.214844 67.632812 230.445312 67.578125 C 230.671875 67.519531 230.902344 67.5 231.128906 67.519531 C 231.355469 67.539062 231.566406 67.589844 231.761719 67.679688 C 231.953125 67.769531 232.113281 67.886719 232.242188 68.03125 C 232.371094 68.179688 232.457031 68.34375 232.503906 68.523438 C 232.546875 68.707031 232.546875 68.890625 232.5 69.078125 C 232.453125 69.269531 232.363281 69.445312 232.234375 69.613281 C 232.105469 69.78125 231.941406 69.925781 231.75 70.046875 C 231.554688 70.167969 231.34375 70.253906 231.113281 70.3125 Z M 231.113281 70.3125 " fill-opacity="1" fill-rule="nonzero"/><path fill="#000000" d="M 240.3125 76.519531 C 240.347656 76.75 240.414062 76.96875 240.515625 77.171875 C 240.617188 77.375 240.746094 77.550781 240.898438 77.699219 C 241.054688 77.84375 241.222656 77.949219 241.40625 78.011719 C 241.589844 78.078125 241.777344 78.097656 241.960938 78.070312 C 242.148438 78.042969 242.320312 77.972656 242.476562 77.863281 C 242.636719 77.75 242.769531 77.601562 242.878906 77.417969 C 242.984375 77.234375 243.058594 77.03125 243.101562 76.808594 C 243.140625 76.582031 243.144531 76.355469 243.109375 76.121094 C 243.078125 75.890625 243.011719 75.671875 242.910156 75.46875 C 242.808594 75.265625 242.679688 75.089844 242.527344 74.941406 C 242.371094 74.796875 242.203125 74.691406 242.019531 74.628906 C 241.835938 74.5625 241.648438 74.542969 241.464844 74.570312 C 241.277344 74.597656 241.105469 74.667969 240.949219 74.777344 C 240.789062 74.890625 240.65625 75.039062 240.546875 75.222656 C 240.441406 75.40625 240.367188 75.609375 240.324219 75.832031 C 240.285156 76.058594 240.28125 76.285156 240.3125 76.519531 Z M 240.3125 76.519531 " fill-opacity="1" fill-rule="nonzero"/><g fill="#000000" fill-opacity="1"><g transform="translate(64.977047, 97.610608)"><g><path d="M 2.953125 -5.96875 C 1.953125 -7.195312 1.453125 -8.304688 1.453125 -9.296875 C 1.453125 -10.285156 2.28125 -11.585938 3.9375 -13.203125 C 4.90625 -14.128906 5.925781 -14.59375 7 -14.59375 C 8.082031 -14.59375 9.59375 -13.628906 11.53125 -11.703125 C 12.070312 -11.046875 12.84375 -10.414062 13.84375 -9.8125 C 14.84375 -9.21875 15.769531 -8.921875 16.625 -8.921875 C 20.21875 -8.921875 22.015625 -10.390625 22.015625 -13.328125 C 22.015625 -14.210938 21.519531 -14.953125 20.53125 -15.546875 C 19.550781 -16.148438 18.328125 -16.585938 16.859375 -16.859375 C 15.390625 -17.128906 13.804688 -17.5625 12.109375 -18.15625 C 10.410156 -18.757812 8.828125 -19.460938 7.359375 -20.265625 C 5.890625 -21.078125 4.660156 -22.363281 3.671875 -24.125 C 2.691406 -25.882812 2.203125 -28 2.203125 -30.46875 C 2.203125 -33.863281 3.460938 -36.828125 5.984375 -39.359375 C 8.515625 -41.890625 11.960938 -43.15625 16.328125 -43.15625 C 18.648438 -43.15625 20.765625 -42.851562 22.671875 -42.25 C 24.585938 -41.65625 25.910156 -41.046875 26.640625 -40.421875 L 28.09375 -39.328125 C 29.289062 -38.210938 29.890625 -37.265625 29.890625 -36.484375 C 29.890625 -35.710938 29.425781 -34.65625 28.5 -33.3125 C 27.1875 -31.375 25.832031 -30.40625 24.4375 -30.40625 C 23.632812 -30.40625 22.632812 -30.789062 21.4375 -31.5625 C 21.3125 -31.644531 21.082031 -31.835938 20.75 -32.140625 C 20.425781 -32.453125 20.132812 -32.707031 19.875 -32.90625 C 19.0625 -33.40625 18.023438 -33.65625 16.765625 -33.65625 C 15.515625 -33.65625 14.472656 -33.351562 13.640625 -32.75 C 12.804688 -32.15625 12.390625 -31.328125 12.390625 -30.265625 C 12.390625 -29.203125 12.878906 -28.34375 13.859375 -27.6875 C 14.847656 -27.03125 16.078125 -26.582031 17.546875 -26.34375 C 19.015625 -26.113281 20.617188 -25.757812 22.359375 -25.28125 C 24.097656 -24.800781 25.695312 -24.210938 27.15625 -23.515625 C 28.625 -22.816406 29.851562 -21.609375 30.84375 -19.890625 C 31.832031 -18.171875 32.328125 -16.054688 32.328125 -13.546875 C 32.328125 -11.035156 31.820312 -8.820312 30.8125 -6.90625 C 29.8125 -5 28.5 -3.523438 26.875 -2.484375 C 23.75 -0.441406 20.410156 0.578125 16.859375 0.578125 C 15.046875 0.578125 13.328125 0.359375 11.703125 -0.078125 C 10.078125 -0.523438 8.765625 -1.078125 7.765625 -1.734375 C 5.710938 -2.972656 4.28125 -4.171875 3.46875 -5.328125 Z M 2.953125 -5.96875 "/></g></g></g><g fill="#000000" fill-opacity="1"><g transform="translate(98.740949, 97.610608)"><g><path d="M 22.125 -27.28125 C 22.351562 -29.445312 23.878906 -30.53125 26.703125 -30.53125 C 28.210938 -30.53125 29.332031 -30.410156 30.0625 -30.171875 C 30.789062 -29.941406 31.300781 -29.535156 31.59375 -28.953125 C 31.882812 -28.378906 32.054688 -27.867188 32.109375 -27.421875 C 32.171875 -26.984375 32.203125 -26.316406 32.203125 -25.421875 L 32.203125 -5.15625 C 32.203125 -4.269531 32.171875 -3.601562 32.109375 -3.15625 C 32.054688 -2.707031 31.894531 -2.195312 31.625 -1.625 C 31.082031 -0.613281 29.757812 -0.109375 27.65625 -0.109375 C 25.550781 -0.109375 24.140625 -0.367188 23.421875 -0.890625 C 22.710938 -1.421875 22.300781 -2.1875 22.1875 -3.1875 C 20.757812 -1.132812 18.375 -0.109375 15.03125 -0.109375 C 11.6875 -0.109375 8.585938 -1.632812 5.734375 -4.6875 C 2.878906 -7.738281 1.453125 -11.28125 1.453125 -15.3125 C 1.453125 -19.351562 2.890625 -22.890625 5.765625 -25.921875 C 8.640625 -28.953125 11.796875 -30.46875 15.234375 -30.46875 C 16.546875 -30.46875 17.742188 -30.234375 18.828125 -29.765625 C 19.910156 -29.304688 20.660156 -28.875 21.078125 -28.46875 C 21.503906 -28.0625 21.851562 -27.664062 22.125 -27.28125 Z M 11.578125 -15.234375 C 11.578125 -13.960938 12.078125 -12.8125 13.078125 -11.78125 C 14.085938 -10.757812 15.304688 -10.25 16.734375 -10.25 C 18.160156 -10.25 19.347656 -10.769531 20.296875 -11.8125 C 21.242188 -12.851562 21.71875 -14 21.71875 -15.25 C 21.71875 -16.507812 21.265625 -17.679688 20.359375 -18.765625 C 19.453125 -19.847656 18.234375 -20.390625 16.703125 -20.390625 C 15.179688 -20.390625 13.945312 -19.847656 13 -18.765625 C 12.050781 -17.679688 11.578125 -16.503906 11.578125 -15.234375 Z M 11.578125 -15.234375 "/></g></g></g><g fill="#000000" fill-opacity="1"><g transform="translate(132.099285, 97.610608)"><g><path d="M 30.703125 -30.171875 C 32.972656 -29.171875 34.109375 -27.957031 34.109375 -26.53125 C 34.109375 -25.832031 33.953125 -25.171875 33.640625 -24.546875 C 33.335938 -23.929688 33.1875 -23.609375 33.1875 -23.578125 L 18.015625 10.375 C 17.703125 11.101562 17.4375 11.660156 17.21875 12.046875 C 17.007812 12.429688 16.671875 12.796875 16.203125 13.140625 C 15.742188 13.492188 15.164062 13.671875 14.46875 13.671875 C 13.78125 13.671875 12.757812 13.378906 11.40625 12.796875 C 9.132812 11.796875 8 10.597656 8 9.203125 C 8 8.273438 9.847656 3.859375 13.546875 -4.046875 L 2.03125 -23.453125 C 1.257812 -24.734375 0.875 -25.679688 0.875 -26.296875 C 0.875 -27.535156 1.914062 -28.769531 4 -30 C 5.3125 -30.769531 6.332031 -31.15625 7.0625 -31.15625 C 7.800781 -31.15625 8.398438 -31 8.859375 -30.6875 C 9.328125 -30.382812 9.664062 -30.066406 9.875 -29.734375 C 10.082031 -29.410156 11.140625 -27.617188 13.046875 -24.359375 C 14.960938 -21.097656 16.789062 -18.054688 18.53125 -15.234375 C 18.726562 -15.847656 19.769531 -18.226562 21.65625 -22.375 C 23.550781 -26.53125 24.566406 -28.742188 24.703125 -29.015625 C 24.835938 -29.285156 25.0625 -29.613281 25.375 -30 C 25.875 -30.65625 26.578125 -30.984375 27.484375 -30.984375 C 28.390625 -30.984375 29.460938 -30.710938 30.703125 -30.171875 Z M 30.703125 -30.171875 "/></g></g></g><g fill="#f40202" fill-opacity="1"><g transform="translate(167.08251, 97.610608)"><g><path d="M 29.734375 -40.6875 C 30.109375 -41.363281 30.660156 -41.816406 31.390625 -42.046875 C 32.128906 -42.285156 33.046875 -42.40625 34.140625 -42.40625 C 35.242188 -42.40625 36.132812 -42.304688 36.8125 -42.109375 C 37.488281 -41.910156 37.988281 -41.675781 38.3125 -41.40625 C 38.644531 -41.144531 38.890625 -40.742188 39.046875 -40.203125 C 39.273438 -39.578125 39.390625 -38.59375 39.390625 -37.25 L 39.390625 -5.09375 C 39.390625 -4.164062 39.359375 -3.488281 39.296875 -3.0625 C 39.242188 -2.644531 39.0625 -2.144531 38.75 -1.5625 C 38.207031 -0.519531 36.703125 0 34.234375 0 C 32.722656 0 31.675781 -0.113281 31.09375 -0.34375 C 30.519531 -0.570312 30.039062 -0.941406 29.65625 -1.453125 C 20.96875 -13.035156 15.253906 -20.601562 12.515625 -24.15625 L 12.515625 -5.09375 C 12.515625 -4.164062 12.484375 -3.488281 12.421875 -3.0625 C 12.367188 -2.644531 12.1875 -2.144531 11.875 -1.5625 C 11.332031 -0.519531 9.828125 0 7.359375 0 C 4.960938 0 3.492188 -0.519531 2.953125 -1.5625 C 2.640625 -2.144531 2.453125 -2.664062 2.390625 -3.125 C 2.335938 -3.59375 2.3125 -4.269531 2.3125 -5.15625 L 2.3125 -37.46875 C 2.3125 -38.9375 2.492188 -40.007812 2.859375 -40.6875 C 3.234375 -41.363281 3.785156 -41.816406 4.515625 -42.046875 C 5.253906 -42.285156 6.203125 -42.40625 7.359375 -42.40625 C 8.515625 -42.40625 9.429688 -42.296875 10.109375 -42.078125 C 10.785156 -41.867188 11.257812 -41.628906 11.53125 -41.359375 C 11.6875 -41.242188 12.128906 -40.738281 12.859375 -39.84375 C 21.003906 -28.769531 26.445312 -21.453125 29.1875 -17.890625 L 29.1875 -37.46875 C 29.1875 -38.9375 29.367188 -40.007812 29.734375 -40.6875 Z M 29.734375 -40.6875 "/></g></g></g><g fill="#f40202" fill-opacity="1"><g transform="translate(208.789543, 97.610608)"><g/></g></g><g fill="#f40202" fill-opacity="1"><g transform="translate(223.441801, 97.610608)"><g/></g></g><g fill="#4caf50" fill-opacity="1"><g transform="translate(238.098131, 97.610608)"><g/></g></g><g fill="#4caf50" fill-opacity="1"><g transform="translate(252.75829, 97.610608)"><g><path d="M 33.640625 -33.875 C 34.648438 -31.832031 35.15625 -29.554688 35.15625 -27.046875 C 35.15625 -24.535156 34.648438 -22.265625 33.640625 -20.234375 C 32.640625 -18.210938 31.347656 -16.601562 29.765625 -15.40625 C 26.566406 -12.9375 23.25 -11.703125 19.8125 -11.703125 L 12.5625 -11.703125 L 12.5625 -5.15625 C 12.5625 -4.269531 12.53125 -3.601562 12.46875 -3.15625 C 12.414062 -2.707031 12.238281 -2.195312 11.9375 -1.625 C 11.394531 -0.582031 9.882812 -0.0625 7.40625 -0.0625 C 4.707031 -0.0625 3.128906 -0.773438 2.671875 -2.203125 C 2.429688 -2.859375 2.3125 -3.863281 2.3125 -5.21875 L 2.3125 -37.359375 C 2.3125 -38.242188 2.335938 -38.910156 2.390625 -39.359375 C 2.453125 -39.804688 2.640625 -40.316406 2.953125 -40.890625 C 3.492188 -41.929688 5 -42.453125 7.46875 -42.453125 L 19.875 -42.453125 C 23.269531 -42.453125 26.566406 -41.21875 29.765625 -38.75 C 31.347656 -37.550781 32.640625 -35.925781 33.640625 -33.875 Z M 19.875 -21.953125 C 21.03125 -21.953125 22.164062 -22.375 23.28125 -23.21875 C 24.40625 -24.070312 24.96875 -25.347656 24.96875 -27.046875 C 24.96875 -28.742188 24.40625 -30.023438 23.28125 -30.890625 C 22.164062 -31.765625 21.007812 -32.203125 19.8125 -32.203125 L 12.5625 -32.203125 L 12.5625 -21.953125 Z M 19.875 -21.953125 "/></g></g></g><g fill="#4caf50" fill-opacity="1"><g transform="translate(287.622313, 97.610608)"><g><path d="M 31.734375 -18.90625 C 31.734375 -16.53125 31.144531 -14.773438 29.96875 -13.640625 C 28.789062 -12.503906 27.488281 -11.9375 26.0625 -11.9375 L 12.34375 -11.9375 C 12.34375 -10.851562 12.976562 -9.941406 14.25 -9.203125 C 15.519531 -8.472656 16.796875 -8.109375 18.078125 -8.109375 C 20.316406 -8.109375 22.070312 -8.335938 23.34375 -8.796875 L 23.984375 -9.03125 C 24.910156 -9.457031 25.679688 -9.671875 26.296875 -9.671875 C 27.535156 -9.671875 28.597656 -8.800781 29.484375 -7.0625 C 29.984375 -6.019531 30.234375 -5.132812 30.234375 -4.40625 C 30.234375 -0.96875 26.117188 0.75 17.890625 0.75 C 15.035156 0.75 12.5 0.257812 10.28125 -0.71875 C 8.0625 -1.707031 6.332031 -3.015625 5.09375 -4.640625 C 2.664062 -7.765625 1.453125 -11.257812 1.453125 -15.125 C 1.453125 -19.988281 3.023438 -23.875 6.171875 -26.78125 C 9.316406 -29.695312 13.242188 -31.15625 17.953125 -31.15625 C 23.316406 -31.15625 27.253906 -29.265625 29.765625 -25.484375 C 31.078125 -23.472656 31.734375 -21.28125 31.734375 -18.90625 Z M 19.515625 -17.203125 C 20.984375 -17.203125 21.71875 -17.820312 21.71875 -19.0625 C 21.71875 -19.945312 21.378906 -20.660156 20.703125 -21.203125 C 20.023438 -21.742188 19.054688 -22.015625 17.796875 -22.015625 C 16.546875 -22.015625 15.300781 -21.5 14.0625 -20.46875 C 12.832031 -19.445312 12.21875 -18.359375 12.21875 -17.203125 Z M 19.515625 -17.203125 "/></g></g></g><g fill="#4caf50" fill-opacity="1"><g transform="translate(320.807076, 97.610608)"><g><path d="M 2.546875 -2.71875 C 1.816406 -3.1875 1.453125 -3.921875 1.453125 -4.921875 C 1.453125 -5.921875 2.1875 -7.445312 3.65625 -9.5 C 4.070312 -10.15625 4.753906 -10.484375 5.703125 -10.484375 C 6.648438 -10.484375 7.929688 -10.007812 9.546875 -9.0625 C 11.171875 -8.113281 12.640625 -7.640625 13.953125 -7.640625 C 16.316406 -7.640625 17.5 -8.101562 17.5 -9.03125 C 17.5 -9.769531 16.203125 -10.3125 13.609375 -10.65625 C 11.179688 -11 8.769531 -11.90625 6.375 -13.375 C 5.25 -14.070312 4.316406 -15.160156 3.578125 -16.640625 C 2.847656 -18.128906 2.484375 -19.898438 2.484375 -21.953125 C 2.484375 -28.054688 6.675781 -31.109375 15.0625 -31.109375 C 17.800781 -31.109375 20.617188 -30.453125 23.515625 -29.140625 C 24.867188 -28.515625 25.546875 -27.738281 25.546875 -26.8125 C 25.546875 -25.882812 25.117188 -24.742188 24.265625 -23.390625 C 23.421875 -22.046875 22.550781 -21.375 21.65625 -21.375 C 21.195312 -21.375 20.335938 -21.660156 19.078125 -22.234375 C 17.828125 -22.816406 16.46875 -23.109375 15 -23.109375 C 12.71875 -23.109375 11.578125 -22.6875 11.578125 -21.84375 C 11.578125 -20.675781 12.890625 -19.921875 15.515625 -19.578125 C 18.066406 -19.304688 20.539062 -18.570312 22.9375 -17.375 C 24.050781 -16.832031 24.984375 -15.894531 25.734375 -14.5625 C 26.492188 -13.226562 26.875 -11.554688 26.875 -9.546875 C 26.875 -7.546875 26.492188 -5.835938 25.734375 -4.421875 C 24.984375 -3.015625 23.9375 -1.96875 22.59375 -1.28125 C 20.113281 -0.0820312 17.007812 0.515625 13.28125 0.515625 C 9.5625 0.515625 5.984375 -0.5625 2.546875 -2.71875 Z M 2.546875 -2.71875 "/></g></g></g><g fill="#4caf50" fill-opacity="1"><g transform="translate(348.200293, 97.610608)"><g><path d="M 20.046875 -20.265625 L 16.28125 -20.5 L 16.28125 -12.515625 C 16.28125 -11.472656 16.441406 -10.71875 16.765625 -10.25 C 17.097656 -9.789062 17.71875 -9.5625 18.625 -9.5625 C 19.53125 -9.5625 20.222656 -9.53125 20.703125 -9.46875 C 21.191406 -9.414062 21.703125 -9.234375 22.234375 -8.921875 C 23.128906 -8.421875 23.578125 -7.128906 23.578125 -5.046875 C 23.578125 -2.609375 23.035156 -1.117188 21.953125 -0.578125 C 21.367188 -0.304688 20.851562 -0.140625 20.40625 -0.078125 C 19.96875 -0.0234375 19.328125 0 18.484375 0 C 14.460938 0 11.410156 -0.90625 9.328125 -2.71875 C 7.242188 -4.53125 6.203125 -7.601562 6.203125 -11.9375 L 6.203125 -20.5 C 5.460938 -20.382812 4.664062 -20.328125 3.8125 -20.328125 C 2.96875 -20.328125 2.265625 -20.65625 1.703125 -21.3125 C 1.148438 -21.96875 0.875 -23.085938 0.875 -24.671875 C 0.875 -26.253906 0.96875 -27.398438 1.15625 -28.109375 C 1.351562 -28.828125 1.625 -29.34375 1.96875 -29.65625 C 2.582031 -30.15625 3.351562 -30.40625 4.28125 -30.40625 L 6.203125 -30.171875 L 6.203125 -36.140625 C 6.203125 -37.023438 6.226562 -37.679688 6.28125 -38.109375 C 6.34375 -38.535156 6.523438 -39 6.828125 -39.5 C 7.335938 -40.46875 8.828125 -40.953125 11.296875 -40.953125 C 13.921875 -40.953125 15.484375 -40.238281 15.984375 -38.8125 C 16.179688 -38.1875 16.28125 -37.203125 16.28125 -35.859375 L 16.28125 -30.171875 C 17.976562 -30.328125 19.257812 -30.40625 20.125 -30.40625 C 21 -30.40625 21.65625 -30.375 22.09375 -30.3125 C 22.539062 -30.257812 23.050781 -30.078125 23.625 -29.765625 C 24.632812 -29.265625 25.140625 -27.78125 25.140625 -25.3125 C 25.140625 -22.875 24.617188 -21.390625 23.578125 -20.859375 C 22.992188 -20.585938 22.476562 -20.421875 22.03125 -20.359375 C 21.59375 -20.296875 20.929688 -20.265625 20.046875 -20.265625 Z M 20.046875 -20.265625 "/></g></g></g><path fill="#4caf50" d="M 321.539062 53.769531 C 320.054688 57.140625 316.113281 58.664062 312.742188 57.175781 C 309.371094 55.691406 308.589844 51.695312 310.078125 48.324219 C 311.566406 44.953125 315.210938 44.609375 318.582031 46.09375 C 321.953125 47.597656 323.042969 50.417969 321.539062 53.769531 Z M 321.539062 53.769531 " fill-opacity="1" fill-rule="nonzero"/><path fill="#80ba1c" d="M 331.21875 52.648438 C 331.21875 56.984375 326 58.921875 321.660156 58.921875 C 317.320312 58.921875 315.246094 55.414062 315.246094 51.074219 C 315.246094 46.734375 318.117188 43.226562 322.4375 43.226562 C 326.777344 43.226562 331.21875 48.308594 331.21875 52.648438 Z M 331.21875 52.648438 " fill-opacity="1" fill-rule="nonzero"/><path fill="#4caf50" d="M 339.847656 50.070312 C 339.847656 54.980469 335.871094 58.972656 330.945312 58.972656 C 326.035156 58.972656 323.214844 55.515625 323.214844 50.589844 C 323.214844 45.679688 326.015625 43 330.945312 43 C 335.871094 43 339.847656 45.144531 339.847656 50.070312 Z M 339.847656 50.070312 " fill-opacity="1" fill-rule="nonzero"/><path fill="#80ba1c" d="M 349.40625 50.070312 C 349.40625 54.980469 345.429688 58.972656 340.503906 58.972656 C 335.59375 58.972656 331.601562 55 331.601562 50.070312 C 331.601562 45.160156 336.113281 42.085938 341.023438 42.085938 C 345.949219 42.085938 349.40625 45.144531 349.40625 50.070312 Z M 349.40625 50.070312 " fill-opacity="1" fill-rule="nonzero"/><path fill="#4caf50" d="M 354.902344 54.652344 C 350.859375 58.144531 345.707031 57.054688 342.214844 53.011719 C 338.722656 48.964844 339.15625 42.84375 343.199219 39.351562 C 347.246094 35.863281 353.363281 36.292969 356.855469 40.339844 C 360.367188 44.367188 358.949219 51.144531 354.902344 54.652344 Z M 354.902344 54.652344 " fill-opacity="1" fill-rule="nonzero"/><path fill="#80ba1c" d="M 363.53125 45.75 C 360.851562 50.382812 354.558594 50.796875 349.925781 48.117188 C 345.292969 45.4375 343.703125 39.527344 346.382812 34.894531 C 349.0625 30.261719 354.972656 28.671875 359.605469 31.347656 C 364.238281 34.011719 366.210938 41.117188 363.53125 45.75 Z M 363.53125 45.75 " fill-opacity="1" fill-rule="nonzero"/><g clip-path="url(#f39c798f10)"><path fill="#4caf50" d="M 369.164062 30.433594 C 369.164062 36.863281 363.945312 39.734375 357.515625 39.734375 C 351.082031 39.734375 345.863281 36.882812 345.863281 30.433594 C 345.863281 25.195312 349.320312 20.753906 354.089844 19.300781 C 353.589844 16.257812 352.3125 11.625 349.90625 11.3125 C 349.855469 11.3125 349.785156 11.296875 349.734375 11.261719 C 349.320312 11.488281 348.785156 11.640625 348.472656 11.640625 C 347.902344 11.640625 347.417969 11.175781 347.417969 10.585938 C 347.417969 10.015625 347.886719 9.53125 348.472656 9.53125 C 348.851562 9.53125 349.5625 9.707031 350.011719 10 C 350.027344 10 350.046875 10 350.0625 10 C 353.46875 10.433594 354.851562 15.945312 355.351562 18.953125 C 356.042969 18.816406 356.769531 18.746094 357.515625 18.746094 C 357.824219 18.746094 358.121094 18.765625 358.429688 18.78125 C 358.933594 15.773438 360.316406 10.292969 363.71875 9.863281 L 363.71875 9.894531 C 364.152344 9.585938 364.894531 9.394531 365.3125 9.394531 C 365.882812 9.394531 366.363281 9.863281 366.363281 10.449219 C 366.363281 11.019531 365.898438 11.503906 365.3125 11.503906 C 364.949219 11.503906 364.308594 11.296875 363.875 11.003906 L 363.894531 11.15625 C 361.542969 11.46875 360.261719 15.929688 359.726562 18.972656 C 365.101562 20.027344 369.164062 24.761719 369.164062 30.433594 Z M 369.164062 30.433594 " fill-opacity="1" fill-rule="nonzero"/></g><path fill="#ffffff" d="M 355.25 27.804688 C 355.25 29.308594 354.003906 30.519531 352.464844 30.519531 C 350.925781 30.519531 349.683594 29.308594 349.683594 27.804688 C 349.683594 26.300781 350.925781 25.089844 352.464844 25.089844 C 354.023438 25.089844 355.25 26.320312 355.25 27.804688 Z M 363.410156 25.089844 C 361.871094 25.089844 360.625 26.300781 360.625 27.804688 C 360.625 29.308594 361.871094 30.519531 363.410156 30.519531 C 364.949219 30.519531 366.191406 29.308594 366.191406 27.804688 C 366.191406 26.320312 364.949219 25.089844 363.410156 25.089844 Z M 363.410156 25.089844 " fill-opacity="1" fill-rule="nonzero"/><path fill="#000000" d="M 354.402344 27.976562 C 354.402344 29.015625 353.539062 29.863281 352.464844 29.863281 C 351.394531 29.863281 350.53125 29.015625 350.53125 27.976562 C 350.53125 27.71875 350.582031 27.460938 350.6875 27.234375 C 350.859375 27.496094 351.152344 27.648438 351.480469 27.648438 C 352.015625 27.648438 352.449219 27.234375 352.449219 26.699219 C 352.449219 26.472656 352.363281 26.265625 352.222656 26.09375 C 352.292969 26.09375 352.378906 26.078125 352.449219 26.078125 C 353.539062 26.09375 354.402344 26.941406 354.402344 27.976562 Z M 363.410156 26.09375 C 363.339844 26.09375 363.253906 26.09375 363.183594 26.113281 C 363.324219 26.265625 363.410156 26.492188 363.410156 26.714844 C 363.410156 27.234375 362.976562 27.667969 362.441406 27.667969 C 362.113281 27.667969 361.820312 27.496094 361.644531 27.253906 C 361.542969 27.476562 361.488281 27.738281 361.488281 27.996094 C 361.488281 29.03125 362.355469 29.878906 363.425781 29.878906 C 364.5 29.878906 365.363281 29.03125 365.363281 27.996094 C 365.34375 26.941406 364.480469 26.09375 363.410156 26.09375 Z M 363.410156 26.09375 " fill-opacity="1" fill-rule="nonzero"/><path fill="#f44d4d" d="M 352.363281 32.644531 C 352.363281 33.390625 351.757812 33.996094 351.015625 33.996094 C 350.269531 33.996094 349.664062 33.390625 349.664062 32.644531 C 349.664062 31.902344 350.269531 31.296875 351.015625 31.296875 C 351.773438 31.296875 352.363281 31.902344 352.363281 32.644531 Z M 363.824219 31.296875 C 363.082031 31.296875 362.476562 31.902344 362.476562 32.644531 C 362.476562 33.390625 363.082031 33.996094 363.824219 33.996094 C 364.566406 33.996094 365.171875 33.390625 365.171875 32.644531 C 365.15625 31.902344 364.566406 31.296875 363.824219 31.296875 Z M 363.824219 31.296875 " fill-opacity="1" fill-rule="nonzero"/><path fill="#000000" d="M 357.722656 34.097656 C 355.835938 34.097656 355.628906 32.230469 355.628906 32.214844 C 355.628906 32.144531 355.683594 32.074219 355.75 32.074219 C 355.820312 32.074219 355.890625 32.128906 355.890625 32.195312 C 355.890625 32.265625 356.097656 33.960938 357.910156 33.839844 C 359.746094 33.71875 359.8125 32.265625 359.8125 32.195312 C 359.8125 32.128906 359.882812 32.058594 359.953125 32.074219 C 360.019531 32.074219 360.074219 32.144531 360.074219 32.214844 C 360.074219 32.230469 359.984375 33.976562 357.929688 34.097656 C 357.859375 34.097656 357.789062 34.097656 357.722656 34.097656 Z M 357.722656 34.097656 " fill-opacity="1" fill-rule="nonzero"/><path fill="#4caf50" d="M 361.578125 46.925781 C 361.578125 46.925781 366.175781 49.984375 364.84375 50.988281 C 363.789062 51.765625 361.179688 47.183594 361.179688 47.183594 Z M 361.578125 46.925781 " fill-opacity="1" fill-rule="nonzero"/><g clip-path="url(#51a939d81a)"><path fill="#4caf50" d="M 342.941406 56.605469 C 342.941406 56.605469 342.320312 62.101562 340.832031 61.378906 C 339.65625 60.808594 342.527344 56.382812 342.527344 56.382812 Z M 342.941406 56.605469 " fill-opacity="1" fill-rule="nonzero"/></g><g clip-path="url(#051f0997c5)"><path fill="#80ba1c" d="M 331.460938 56.605469 C 331.460938 56.605469 330.839844 62.101562 329.351562 61.378906 C 328.179688 60.808594 331.046875 56.382812 331.046875 56.382812 Z M 331.460938 56.605469 " fill-opacity="1" fill-rule="nonzero"/></g><g clip-path="url(#bdf274511d)"><path fill="#4caf50" d="M 322.195312 56.535156 C 322.195312 56.535156 321.574219 62.035156 320.085938 61.308594 C 318.910156 60.738281 321.78125 56.3125 321.78125 56.3125 Z M 322.195312 56.535156 " fill-opacity="1" fill-rule="nonzero"/></g><path fill="#80ba1c" d="M 314.296875 55.414062 C 314.296875 55.414062 313.675781 60.910156 312.1875 60.183594 C 311.011719 59.613281 313.882812 55.1875 313.882812 55.1875 Z M 314.296875 55.414062 " fill-opacity="1" fill-rule="nonzero"/><path fill="#80ba1c" d="M 354.765625 52.5625 C 354.765625 52.5625 359.363281 55.621094 358.03125 56.625 C 356.976562 57.402344 354.367188 52.820312 354.367188 52.820312 Z M 354.765625 52.5625 " fill-opacity="1" fill-rule="nonzero"/></svg>